<svg width="23" height="28" viewBox="0 0 23 28" fill="none" xmlns="http://www.w3.org/2000/svg">
<path d="M2.1668 12.9627L0.997113 12.0237C0.816418 12.2487 0.704497 12.5212 0.674775 12.8083L2.1668 12.9627ZM20.5114 12.9627H22.0114C22.0114 12.6007 21.8805 12.2509 21.6428 11.9778L20.5114 12.9627ZM1 3.5H10.968V0.5H1V3.5ZM10.968 3.5H21.5714V0.5H10.968V3.5ZM9.79829 1.06094L0.997113 12.0237L3.33649 13.9018L12.1377 2.93906L9.79829 1.06094ZM9.83661 2.98489L19.3801 13.9476L21.6428 11.9778L12.0993 1.01511L9.83661 2.98489ZM20.5114 11.4627H2.1668V14.4627H20.5114V11.4627ZM20.5114 12.9627C19.0114 12.9627 19.0114 12.9627 19.0114 12.9627C19.0114 12.9628 19.0114 12.9628 19.0114 12.9628C19.0114 12.9628 19.0114 12.9628 19.0114 12.9629C19.0114 12.9629 19.0114 12.9629 19.0114 12.963C19.0114 12.963 19.0114 12.963 19.0114 12.9631C19.0114 12.9631 19.0114 12.9632 19.0114 12.9632C19.0114 12.9633 19.0114 12.9634 19.0114 12.9634C19.0114 12.9635 19.0114 12.9636 19.0114 12.9636C19.0114 12.9637 19.0114 12.9638 19.0114 12.9639C19.0114 12.964 19.0114 12.9641 19.0114 12.9642C19.0114 12.9643 19.0114 12.9644 19.0114 12.9645C19.0114 12.9646 19.0114 12.9647 19.0114 12.9648C19.0114 12.9649 19.0114 12.965 19.0114 12.9651C19.0114 12.9653 19.0114 12.9654 19.0114 12.9655C19.0114 12.9657 19.0114 12.9658 19.0114 12.966C19.0114 12.9661 19.0114 12.9662 19.0114 12.9664C19.0114 12.9665 19.0114 12.9667 19.0114 12.9669C19.0114 12.967 19.0114 12.9672 19.0114 12.9674C19.0114 12.9675 19.0114 12.9677 19.0114 12.9679C19.0114 12.9681 19.0114 12.9683 19.0114 12.9685C19.0114 12.9686 19.0114 12.9688 19.0114 12.969C19.0114 12.9692 19.0114 12.9694 19.0114 12.9696C19.0114 12.9699 19.0114 12.9701 19.0114 12.9703C19.0114 12.9705 19.0114 12.9707 19.0114 12.971C19.0114 12.9712 19.0114 12.9714 19.0114 12.9717C19.0114 12.9719 19.0114 12.9721 19.0114 12.9724C19.0114 12.9726 19.0114 12.9729 19.0114 12.9731C19.0114 12.9734 19.0114 12.9737 19.0114 12.9739C19.0114 12.9742 19.0114 12.9745 19.0114 12.9747C19.0114 12.975 19.0114 12.9753 19.0114 12.9756C19.0114 12.9759 19.0114 12.9761 19.0114 12.9764C19.0114 12.9767 19.0114 12.977 19.0114 12.9773C19.0114 12.9776 19.0114 12.9779 19.0114 12.9783C19.0114 12.9786 19.0114 12.9789 19.0114 12.9792C19.0114 12.9795 19.0114 12.9799 19.0114 12.9802C19.0114 12.9805 19.0114 12.9809 19.0114 12.9812C19.0114 12.9815 19.0114 12.9819 19.0114 12.9822C19.0114 12.9826 19.0114 12.9829 19.0114 12.9833C19.0114 12.9837 19.0114 12.984 19.0114 12.9844C19.0114 12.9848 19.0114 12.9851 19.0114 12.9855C19.0114 12.9859 19.0114 12.9863 19.0114 12.9867C19.0114 12.987 19.0114 12.9874 19.0114 12.9878C19.0114 12.9882 19.0114 12.9886 19.0114 12.989C19.0114 12.9894 19.0114 12.9899 19.0114 12.9903C19.0114 12.9907 19.0114 12.9911 19.0114 12.9915C19.0114 12.992 19.0114 12.9924 19.0114 12.9928C19.0114 12.9932 19.0114 12.9937 19.0114 12.9941C19.0114 12.9946 19.0114 12.995 19.0114 12.9955C19.0114 12.9959 19.0114 12.9964 19.0114 12.9968C19.0114 12.9973 19.0114 12.9978 19.0114 12.9982C19.0114 12.9987 19.0114 12.9992 19.0114 12.9997C19.0114 13.0001 19.0114 13.0006 19.0114 13.0011C19.0114 13.0016 19.0114 13.0021 19.0114 13.0026C19.0114 13.0031 19.0114 13.0036 19.0114 13.0041C19.0114 13.0046 19.0114 13.0051 19.0114 13.0056C19.0114 13.0062 19.0114 13.0067 19.0114 13.0072C19.0114 13.0077 19.0114 13.0083 19.0114 13.0088C19.0114 13.0093 19.0114 13.0099 19.0114 13.0104C19.0114 13.011 19.0114 13.0115 19.0114 13.0121C19.0114 13.0126 19.0114 13.0132 19.0114 13.0137C19.0114 13.0143 19.0114 13.0149 19.0114 13.0154C19.0114 13.016 19.0114 13.0166 19.0114 13.0172C19.0114 13.0178 19.0114 13.0183 19.0114 13.0189C19.0114 13.0195 19.0114 13.0201 19.0114 13.0207C19.0114 13.0213 19.0114 13.0219 19.0114 13.0225C19.0114 13.0231 19.0114 13.0238 19.0114 13.0244C19.0114 13.025 19.0114 13.0256 19.0114 13.0262C19.0114 13.0269 19.0114 13.0275 19.0114 13.0281C19.0114 13.0288 19.0114 13.0294 19.0114 13.0301C19.0114 13.0307 19.0114 13.0313 19.0114 13.032C19.0114 13.0327 19.0114 13.0333 19.0114 13.034C19.0114 13.0346 19.0114 13.0353 19.0114 13.036C19.0114 13.0367 19.0114 13.0373 19.0114 13.038C19.0114 13.0387 19.0114 13.0394 19.0114 13.0401C19.0114 13.0408 19.0114 13.0415 19.0114 13.0422C19.0114 13.0429 19.0114 13.0436 19.0114 13.0443C19.0114 13.045 19.0114 13.0457 19.0114 13.0464C19.0114 13.0471 19.0114 13.0478 19.0114 13.0486C19.0114 13.0493 19.0114 13.05 19.0114 13.0508C19.0114 13.0515 19.0114 13.0522 19.0114 13.053C19.0114 13.0537 19.0114 13.0545 19.0114 13.0552C19.0114 13.056 19.0114 13.0567 19.0114 13.0575C19.0114 13.0583 19.0114 13.059 19.0114 13.0598C19.0114 13.0606 19.0114 13.0614 19.0114 13.0621C19.0114 13.0629 19.0114 13.0637 19.0114 13.0645C19.0114 13.0653 19.0114 13.0661 19.0114 13.0669C19.0114 13.0677 19.0114 13.0685 19.0114 13.0693C19.0114 13.0701 19.0114 13.0709 19.0114 13.0717C19.0114 13.0725 19.0114 13.0734 19.0114 13.0742C19.0114 13.075 19.0114 13.0759 19.0114 13.0767C19.0114 13.0775 19.0114 13.0784 19.0114 13.0792C19.0114 13.0801 19.0114 13.0809 19.0114 13.0818C19.0114 13.0826 19.0114 13.0835 19.0114 13.0843C19.0114 13.0852 19.0114 13.0861 19.0114 13.0869C19.0114 13.0878 19.0114 13.0887 19.0114 13.0895C19.0114 13.0904 19.0114 13.0913 19.0114 13.0922C19.0114 13.0931 19.0114 13.094 19.0114 13.0949C19.0114 13.0958 19.0114 13.0967 19.0114 13.0976C19.0114 13.0985 19.0114 13.0994 19.0114 13.1003C19.0114 13.1012 19.0114 13.1022 19.0114 13.1031C19.0114 13.104 19.0114 13.1049 19.0114 13.1059C19.0114 13.1068 19.0114 13.1077 19.0114 13.1087C19.0114 13.1096 19.0114 13.1106 19.0114 13.1115C19.0114 13.1125 19.0114 13.1134 19.0114 13.1144C19.0114 13.1153 19.0114 13.1163 19.0114 13.1173C19.0114 13.1182 19.0114 13.1192 19.0114 13.1202C19.0114 13.1212 19.0114 13.1222 19.0114 13.1231C19.0114 13.1241 19.0114 13.1251 19.0114 13.1261C19.0114 13.1271 19.0114 13.1281 19.0114 13.1291C19.0114 13.1301 19.0114 13.1311 19.0114 13.1321C19.0114 13.1332 19.0114 13.1342 19.0114 13.1352C19.0114 13.1362 19.0114 13.1372 19.0114 13.1383C19.0114 13.1393 19.0114 13.1403 19.0114 13.1414C19.0114 13.1424 19.0114 13.1435 19.0114 13.1445C19.0114 13.1456 19.0114 13.1466 19.0114 13.1477C19.0114 13.1487 19.0114 13.1498 19.0114 13.1509C19.0114 13.1519 19.0114 13.153 19.0114 13.1541C19.0114 13.1551 19.0114 13.1562 19.0114 13.1573C19.0114 13.1584 19.0114 13.1595 19.0114 13.1606C19.0114 13.1617 19.0114 13.1628 19.0114 13.1639C19.0114 13.165 19.0114 13.1661 19.0114 13.1672C19.0114 13.1683 19.0114 13.1694 19.0114 13.1705C19.0114 13.1716 19.0114 13.1728 19.0114 13.1739C19.0114 13.175 19.0114 13.1761 19.0114 13.1773C19.0114 13.1784 19.0114 13.1796 19.0114 13.1807C19.0114 13.1818 19.0114 13.183 19.0114 13.1841C19.0114 13.1853 19.0114 13.1865 19.0114 13.1876C19.0114 13.1888 19.0114 13.1899 19.0114 13.1911C19.0114 13.1923 19.0114 13.1935 19.0114 13.1946C19.0114 13.1958 19.0114 13.197 19.0114 13.1982C19.0114 13.1994 19.0114 13.2006 19.0114 13.2018C19.0114 13.203 19.0114 13.2042 19.0114 13.2054C19.0114 13.2066 19.0114 13.2078 19.0114 13.209C19.0114 13.2102 19.0114 13.2114 19.0114 13.2127C19.0114 13.2139 19.0114 13.2151 19.0114 13.2163C19.0114 13.2176 19.0114 13.2188 19.0114 13.2201C19.0114 13.2213 19.0114 13.2225 19.0114 13.2238C19.0114 13.225 19.0114 13.2263 19.0114 13.2275C19.0114 13.2288 19.0114 13.2301 19.0114 13.2313C19.0114 13.2326 19.0114 13.2339 19.0114 13.2351C19.0114 13.2364 19.0114 13.2377 19.0114 13.239C19.0114 13.2403 19.0114 13.2416 19.0114 13.2429C19.0114 13.2441 19.0114 13.2454 19.0114 13.2467C19.0114 13.248 19.0114 13.2493 19.0114 13.2507C19.0114 13.252 19.0114 13.2533 19.0114 13.2546C19.0114 13.2559 19.0114 13.2572 19.0114 13.2586C19.0114 13.2599 19.0114 13.2612 19.0114 13.2626C19.0114 13.2639 19.0114 13.2652 19.0114 13.2666C19.0114 13.2679 19.0114 13.2693 19.0114 13.2706C19.0114 13.272 19.0114 13.2733 19.0114 13.2747C19.0114 13.2761 19.0114 13.2774 19.0114 13.2788C19.0114 13.2802 19.0114 13.2815 19.0114 13.2829C19.0114 13.2843 19.0114 13.2857 19.0114 13.2871C19.0114 13.2884 19.0114 13.2898 19.0114 13.2912C19.0114 13.2926 19.0114 13.294 19.0114 13.2954C19.0114 13.2968 19.0114 13.2982 19.0114 13.2996C19.0114 13.3011 19.0114 13.3025 19.0114 13.3039C19.0114 13.3053 19.0114 13.3067 19.0114 13.3082C19.0114 13.3096 19.0114 13.311 19.0114 13.3125C19.0114 13.3139 19.0114 13.3154 19.0114 13.3168C19.0114 13.3182 19.0114 13.3197 19.0114 13.3212C19.0114 13.3226 19.0114 13.3241 19.0114 13.3255C19.0114 13.327 19.0114 13.3285 19.0114 13.3299C19.0114 13.3314 19.0114 13.3329 19.0114 13.3344C19.0114 13.3358 19.0114 13.3373 19.0114 13.3388C19.0114 13.3403 19.0114 13.3418 19.0114 13.3433C19.0114 13.3448 19.0114 13.3463 19.0114 13.3478C19.0114 13.3493 19.0114 13.3508 19.0114 13.3523C19.0114 13.3538 19.0114 13.3554 19.0114 13.3569C19.0114 13.3584 19.0114 13.3599 19.0114 13.3615C19.0114 13.363 19.0114 13.3645 19.0114 13.3661C19.0114 13.3676 19.0114 13.3691 19.0114 13.3707C19.0114 13.3722 19.0114 13.3738 19.0114 13.3753C19.0114 13.3769 19.0114 13.3785 19.0114 13.38C19.0114 13.3816 19.0114 13.3832 19.0114 13.3847C19.0114 13.3863 19.0114 13.3879 19.0114 13.3895C19.0114 13.391 19.0114 13.3926 19.0114 13.3942C19.0114 13.3958 19.0114 13.3974 19.0114 13.399C19.0114 13.4006 19.0114 13.4022 19.0114 13.4038C19.0114 13.4054 19.0114 13.407 19.0114 13.4086C19.0114 13.4103 19.0114 13.4119 19.0114 13.4135C19.0114 13.4151 19.0114 13.4168 19.0114 13.4184C19.0114 13.42 19.0114 13.4217 19.0114 13.4233C19.0114 13.4249 19.0114 13.4266 19.0114 13.4282C19.0114 13.4299 19.0114 13.4315 19.0114 13.4332C19.0114 13.4348 19.0114 13.4365 19.0114 13.4382C19.0114 13.4398 19.0114 13.4415 19.0114 13.4432C19.0114 13.4448 19.0114 13.4465 19.0114 13.4482C19.0114 13.4499 19.0114 13.4516 19.0114 13.4533C19.0114 13.4549 19.0114 13.4566 19.0114 13.4583C19.0114 13.46 19.0114 13.4617 19.0114 13.4634C19.0114 13.4652 19.0114 13.4669 19.0114 13.4686C19.0114 13.4703 19.0114 13.472 19.0114 13.4737C19.0114 13.4755 19.0114 13.4772 19.0114 13.4789C19.0114 13.4806 19.0114 13.4824 19.0114 13.4841C19.0114 13.4859 19.0114 13.4876 19.0114 13.4894C19.0114 13.4911 19.0114 13.4928 19.0114 13.4946C19.0114 13.4964 19.0114 13.4981 19.0114 13.4999C19.0114 13.5016 19.0114 13.5034 19.0114 13.5052C19.0114 13.507 19.0114 13.5087 19.0114 13.5105C19.0114 13.5123 19.0114 13.5141 19.0114 13.5159C19.0114 13.5177 19.0114 13.5195 19.0114 13.5213C19.0114 13.523 19.0114 13.5249 19.0114 13.5267C19.0114 13.5285 19.0114 13.5303 19.0114 13.5321C19.0114 13.5339 19.0114 13.5357 19.0114 13.5375C19.0114 13.5394 19.0114 13.5412 19.0114 13.543C19.0114 13.5448 19.0114 13.5467 19.0114 13.5485C19.0114 13.5504 19.0114 13.5522 19.0114 13.554C19.0114 13.5559 19.0114 13.5577 19.0114 13.5596C19.0114 13.5614 19.0114 13.5633 19.0114 13.5652C19.0114 13.567 19.0114 13.5689 19.0114 13.5708C19.0114 13.5726 19.0114 13.5745 19.0114 13.5764C19.0114 13.5783 19.0114 13.5802 19.0114 13.582C19.0114 13.5839 19.0114 13.5858 19.0114 13.5877C19.0114 13.5896 19.0114 13.5915 19.0114 13.5934C19.0114 13.5953 19.0114 13.5972 19.0114 13.5991C19.0114 13.601 19.0114 13.603 19.0114 13.6049C19.0114 13.6068 19.0114 13.6087 19.0114 13.6106C19.0114 13.6126 19.0114 13.6145 19.0114 13.6164C19.0114 13.6184 19.0114 13.6203 19.0114 13.6223C19.0114 13.6242 19.0114 13.6262 19.0114 13.6281C19.0114 13.6301 19.0114 13.632 19.0114 13.634C19.0114 13.6359 19.0114 13.6379 19.0114 13.6399C19.0114 13.6418 19.0114 13.6438 19.0114 13.6458C19.0114 13.6478 19.0114 13.6497 19.0114 13.6517C19.0114 13.6537 19.0114 13.6557 19.0114 13.6577C19.0114 13.6597 19.0114 13.6617 19.0114 13.6637C19.0114 13.6657 19.0114 13.6677 19.0114 13.6697C19.0114 13.6717 19.0114 13.6737 19.0114 13.6757C19.0114 13.6777 19.0114 13.6798 19.0114 13.6818C19.0114 13.6838 19.0114 13.6858 19.0114 13.6879C19.0114 13.6899 19.0114 13.6919 19.0114 13.694C19.0114 13.696 19.0114 13.6981 19.0114 13.7001C19.0114 13.7022 19.0114 13.7042 19.0114 13.7063C19.0114 13.7083 19.0114 13.7104 19.0114 13.7124C19.0114 13.7145 19.0114 13.7166 19.0114 13.7186C19.0114 13.7207 19.0114 13.7228 19.0114 13.7249C19.0114 13.727 19.0114 13.729 19.0114 13.7311C19.0114 13.7332 19.0114 13.7353 19.0114 13.7374C19.0114 13.7395 19.0114 13.7416 19.0114 13.7437C19.0114 13.7458 19.0114 13.7479 19.0114 13.75C19.0114 13.7521 19.0114 13.7543 19.0114 13.7564C19.0114 13.7585 19.0114 13.7606 19.0114 13.7628C19.0114 13.7649 19.0114 13.767 19.0114 13.7691C19.0114 13.7713 19.0114 13.7734 19.0114 13.7756C19.0114 13.7777 19.0114 13.7799 19.0114 13.782C19.0114 13.7842 19.0114 13.7863 19.0114 13.7885C19.0114 13.7906 19.0114 13.7928 19.0114 13.795C19.0114 13.7971 19.0114 13.7993 19.0114 13.8015C19.0114 13.8037 19.0114 13.8058 19.0114 13.808C19.0114 13.8102 19.0114 13.8124 19.0114 13.8146C19.0114 13.8168 19.0114 13.819 19.0114 13.8212C19.0114 13.8234 19.0114 13.8256 19.0114 13.8278C19.0114 13.83 19.0114 13.8322 19.0114 13.8344C19.0114 13.8366 19.0114 13.8388 19.0114 13.8411C19.0114 13.8433 19.0114 13.8455 19.0114 13.8477C19.0114 13.85 19.0114 13.8522 19.0114 13.8544C19.0114 13.8567 19.0114 13.8589 19.0114 13.8612C19.0114 13.8634 19.0114 13.8657 19.0114 13.8679C19.0114 13.8702 19.0114 13.8724 19.0114 13.8747C19.0114 13.877 19.0114 13.8792 19.0114 13.8815C19.0114 13.8838 19.0114 13.886 19.0114 13.8883C19.0114 13.8906 19.0114 13.8929 19.0114 13.8952C19.0114 13.8974 19.0114 13.8997 19.0114 13.902C19.0114 13.9043 19.0114 13.9066 19.0114 13.9089C19.0114 13.9112 19.0114 13.9135 19.0114 13.9158C19.0114 13.9181 19.0114 13.9204 19.0114 13.9228C19.0114 13.9251 19.0114 13.9274 19.0114 13.9297C19.0114 13.932 19.0114 13.9344 19.0114 13.9367C19.0114 13.939 19.0114 13.9414 19.0114 13.9437C19.0114 13.9461 19.0114 13.9484 19.0114 13.9507C19.0114 13.9531 19.0114 13.9554 19.0114 13.9578C19.0114 13.9601 19.0114 13.9625 19.0114 13.9649C19.0114 13.9672 19.0114 13.9696 19.0114 13.972C19.0114 13.9743 19.0114 13.9767 19.0114 13.9791C19.0114 13.9815 19.0114 13.9839 19.0114 13.9862C19.0114 13.9886 19.0114 13.991 19.0114 13.9934C19.0114 13.9958 19.0114 13.9982 19.0114 14.0006C19.0114 14.003 19.0114 14.0054 19.0114 14.0078C19.0114 14.0102 19.0114 14.0126 19.0114 14.0151C19.0114 14.0175 19.0114 14.0199 19.0114 14.0223C19.0114 14.0247 19.0114 14.0272 19.0114 14.0296C19.0114 14.032 19.0114 14.0345 19.0114 14.0369C19.0114 14.0393 19.0114 14.0418 19.0114 14.0442C19.0114 14.0467 19.0114 14.0491 19.0114 14.0516C19.0114 14.054 19.0114 14.0565 19.0114 14.059C19.0114 14.0614 19.0114 14.0639 19.0114 14.0664C19.0114 14.0688 19.0114 14.0713 19.0114 14.0738C19.0114 14.0763 19.0114 14.0787 19.0114 14.0812C19.0114 14.0837 19.0114 14.0862 19.0114 14.0887C19.0114 14.0912 19.0114 14.0937 19.0114 14.0962C19.0114 14.0987 19.0114 14.1012 19.0114 14.1037C19.0114 14.1062 19.0114 14.1087 19.0114 14.1112C19.0114 14.1138 19.0114 14.1163 19.0114 14.1188C19.0114 14.1213 19.0114 14.1238 19.0114 14.1264C19.0114 14.1289 19.0114 14.1314 19.0114 14.134C19.0114 14.1365 19.0114 14.1391 19.0114 14.1416C19.0114 14.1442 19.0114 14.1467 19.0114 14.1493C19.0114 14.1518 19.0114 14.1544 19.0114 14.1569C19.0114 14.1595 19.0114 14.1621 19.0114 14.1646C19.0114 14.1672 19.0114 14.1698 19.0114 14.1723C19.0114 14.1749 19.0114 14.1775 19.0114 14.1801C19.0114 14.1827 19.0114 14.1853 19.0114 14.1879C19.0114 14.1904 19.0114 14.193 19.0114 14.1956C19.0114 14.1982 19.0114 14.2008 19.0114 14.2034C19.0114 14.2061 19.0114 14.2087 19.0114 14.2113C19.0114 14.2139 19.0114 14.2165 19.0114 14.2191C19.0114 14.2217 19.0114 14.2244 19.0114 14.227C19.0114 14.2296 19.0114 14.2323 19.0114 14.2349C19.0114 14.2375 19.0114 14.2402 19.0114 14.2428C19.0114 14.2455 19.0114 14.2481 19.0114 14.2508C19.0114 14.2534 19.0114 14.2561 19.0114 14.2587C19.0114 14.2614 19.0114 14.2641 19.0114 14.2667C19.0114 14.2694 19.0114 14.2721 19.0114 14.2747C19.0114 14.2774 19.0114 14.2801 19.0114 14.2828C19.0114 14.2854 19.0114 14.2881 19.0114 14.2908C19.0114 14.2935 19.0114 14.2962 19.0114 14.2989C19.0114 14.3016 19.0114 14.3043 19.0114 14.307C19.0114 14.3097 19.0114 14.3124 19.0114 14.3151C19.0114 14.3178 19.0114 14.3205 19.0114 14.3233C19.0114 14.326 19.0114 14.3287 19.0114 14.3314C19.0114 14.3341 19.0114 14.3369 19.0114 14.3396C19.0114 14.3423 19.0114 14.3451 19.0114 14.3478C19.0114 14.3506 19.0114 14.3533 19.0114 14.3561C19.0114 14.3588 19.0114 14.3616 19.0114 14.3643C19.0114 14.3671 19.0114 14.3698 19.0114 14.3726C19.0114 14.3753 19.0114 14.3781 19.0114 14.3809C19.0114 14.3837 19.0114 14.3864 19.0114 14.3892C19.0114 14.392 19.0114 14.3948 19.0114 14.3975C19.0114 14.4003 19.0114 14.4031 19.0114 14.4059C19.0114 14.4087 19.0114 14.4115 19.0114 14.4143C19.0114 14.4171 19.0114 14.4199 19.0114 14.4227C19.0114 14.4255 19.0114 14.4283 19.0114 14.4311C19.0114 14.434 19.0114 14.4368 19.0114 14.4396C19.0114 14.4424 19.0114 14.4452 19.0114 14.4481C19.0114 14.4509 19.0114 14.4537 19.0114 14.4566C19.0114 14.4594 19.0114 14.4622 19.0114 14.4651C19.0114 14.4679 19.0114 14.4708 19.0114 14.4736C19.0114 14.4765 19.0114 14.4793 19.0114 14.4822C19.0114 14.485 19.0114 14.4879 19.0114 14.4908C19.0114 14.4936 19.0114 14.4965 19.0114 14.4994C19.0114 14.5022 19.0114 14.5051 19.0114 14.508C19.0114 14.5109 19.0114 14.5138 19.0114 14.5167C19.0114 14.5195 19.0114 14.5224 19.0114 14.5253C19.0114 14.5282 19.0114 14.5311 19.0114 14.534C19.0114 14.5369 19.0114 14.5398 19.0114 14.5427C19.0114 14.5456 19.0114 14.5486 19.0114 14.5515C19.0114 14.5544 19.0114 14.5573 19.0114 14.5602C19.0114 14.5631 19.0114 14.5661 19.0114 14.569C19.0114 14.5719 19.0114 14.5749 19.0114 14.5778C19.0114 14.5807 19.0114 14.5837 19.0114 14.5866C19.0114 14.5896 19.0114 14.5925 19.0114 14.5955C19.0114 14.5984 19.0114 14.6014 19.0114 14.6043C19.0114 14.6073 19.0114 14.6103 19.0114 14.6132C19.0114 14.6162 19.0114 14.6192 19.0114 14.6221C19.0114 14.6251 19.0114 14.6281 19.0114 14.6311C19.0114 14.634 19.0114 14.637 19.0114 14.64C19.0114 14.643 19.0114 14.646 19.0114 14.649C19.0114 14.652 19.0114 14.655 19.0114 14.658C19.0114 14.661 19.0114 14.664 19.0114 14.667C19.0114 14.67 19.0114 14.673 19.0114 14.676C19.0114 14.6791 19.0114 14.6821 19.0114 14.6851C19.0114 14.6881 19.0114 14.6912 19.0114 14.6942C19.0114 14.6972 19.0114 14.7002 19.0114 14.7033C19.0114 14.7063 19.0114 14.7094 19.0114 14.7124C19.0114 14.7155 19.0114 14.7185 19.0114 14.7215C19.0114 14.7246 19.0114 14.7277 19.0114 14.7307C19.0114 14.7338 19.0114 14.7368 19.0114 14.7399C19.0114 14.743 19.0114 14.746 19.0114 14.7491C19.0114 14.7522 19.0114 14.7553 19.0114 14.7583C19.0114 14.7614 19.0114 14.7645 19.0114 14.7676C19.0114 14.7707 19.0114 14.7738 19.0114 14.7769C19.0114 14.78 19.0114 14.7831 19.0114 14.7862C19.0114 14.7893 19.0114 14.7924 19.0114 14.7955C19.0114 14.7986 19.0114 14.8017 19.0114 14.8048C19.0114 14.8079 19.0114 14.811 19.0114 14.8142C19.0114 14.8173 19.0114 14.8204 19.0114 14.8235C19.0114 14.8267 19.0114 14.8298 19.0114 14.8329C19.0114 14.8361 19.0114 14.8392 19.0114 14.8424C19.0114 14.8455 19.0114 14.8486 19.0114 14.8518C19.0114 14.8549 19.0114 14.8581 19.0114 14.8613C19.0114 14.8644 19.0114 14.8676 19.0114 14.8707C19.0114 14.8739 19.0114 14.8771 19.0114 14.8802C19.0114 14.8834 19.0114 14.8866 19.0114 14.8898C19.0114 14.8929 19.0114 14.8961 19.0114 14.8993C19.0114 14.9025 19.0114 14.9057 19.0114 14.9089C19.0114 14.9121 19.0114 14.9153 19.0114 14.9185C19.0114 14.9217 19.0114 14.9249 19.0114 14.9281C19.0114 14.9313 19.0114 14.9345 19.0114 14.9377C19.0114 14.9409 19.0114 14.9441 19.0114 14.9474C19.0114 14.9506 19.0114 14.9538 19.0114 14.957C19.0114 14.9603 19.0114 14.9635 19.0114 14.9667C19.0114 14.97 19.0114 14.9732 19.0114 14.9764C19.0114 14.9797 19.0114 14.9829 19.0114 14.9862C19.0114 14.9894 19.0114 14.9927 19.0114 14.9959C19.0114 14.9992 19.0114 15.0024 19.0114 15.0057C19.0114 15.0089 19.0114 15.0122 19.0114 15.0155C19.0114 15.0188 19.0114 15.022 19.0114 15.0253C19.0114 15.0286 19.0114 15.0319 19.0114 15.0351C19.0114 15.0384 19.0114 15.0417 19.0114 15.045C19.0114 15.0483 19.0114 15.0516 19.0114 15.0549C19.0114 15.0582 19.0114 15.0615 19.0114 15.0648C19.0114 15.0681 19.0114 15.0714 19.0114 15.0747C19.0114 15.078 19.0114 15.0813 19.0114 15.0846C19.0114 15.0879 19.0114 15.0913 19.0114 15.0946C19.0114 15.0979 19.0114 15.1012 19.0114 15.1046C19.0114 15.1079 19.0114 15.1112 19.0114 15.1146C19.0114 15.1179 19.0114 15.1212 19.0114 15.1246C19.0114 15.1279 19.0114 15.1313 19.0114 15.1346C19.0114 15.138 19.0114 15.1413 19.0114 15.1447C19.0114 15.148 19.0114 15.1514 19.0114 15.1548C19.0114 15.1581 19.0114 15.1615 19.0114 15.1649C19.0114 15.1682 19.0114 15.1716 19.0114 15.175C19.0114 15.1784 19.0114 15.1817 19.0114 15.1851C19.0114 15.1885 19.0114 15.1919 19.0114 15.1953C19.0114 15.1987 19.0114 15.2021 19.0114 15.2055C19.0114 15.2089 19.0114 15.2123 19.0114 15.2157C19.0114 15.2191 19.0114 15.2225 19.0114 15.2259C19.0114 15.2293 19.0114 15.2327 19.0114 15.2362C19.0114 15.2396 19.0114 15.243 19.0114 15.2464C19.0114 15.2498 19.0114 15.2533 19.0114 15.2567C19.0114 15.2601 19.0114 15.2636 19.0114 15.267C19.0114 15.2704 19.0114 15.2739 19.0114 15.2773C19.0114 15.2808 19.0114 15.2842 19.0114 15.2877C19.0114 15.2911 19.0114 15.2946 19.0114 15.298C19.0114 15.3015 19.0114 15.305 19.0114 15.3084C19.0114 15.3119 19.0114 15.3154 19.0114 15.3188C19.0114 15.3223 19.0114 15.3258 19.0114 15.3293C19.0114 15.3327 19.0114 15.3362 19.0114 15.3397C19.0114 15.3432 19.0114 15.3467 19.0114 15.3502C19.0114 15.3537 19.0114 15.3572 19.0114 15.3606C19.0114 15.3641 19.0114 15.3676 19.0114 15.3712C19.0114 15.3747 19.0114 15.3782 19.0114 15.3817C19.0114 15.3852 19.0114 15.3887 19.0114 15.3922C19.0114 15.3957 19.0114 15.3993 19.0114 15.4028C19.0114 15.4063 19.0114 15.4098 19.0114 15.4134C19.0114 15.4169 19.0114 15.4204 19.0114 15.424C19.0114 15.4275 19.0114 15.4311 19.0114 15.4346C19.0114 15.4381 19.0114 15.4417 19.0114 15.4452C19.0114 15.4488 19.0114 15.4524 19.0114 15.4559C19.0114 15.4595 19.0114 15.463 19.0114 15.4666C19.0114 15.4702 19.0114 15.4737 19.0114 15.4773C19.0114 15.4809 19.0114 15.4844 19.0114 15.488C19.0114 15.4916 19.0114 15.4952 19.0114 15.4988C19.0114 15.5023 19.0114 15.5059 19.0114 15.5095C19.0114 15.5131 19.0114 15.5167 19.0114 15.5203C19.0114 15.5239 19.0114 15.5275 19.0114 15.5311C19.0114 15.5347 19.0114 15.5383 19.0114 15.5419C19.0114 15.5455 19.0114 15.5492 19.0114 15.5528C19.0114 15.5564 19.0114 15.56 19.0114 15.5636C19.0114 15.5673 19.0114 15.5709 19.0114 15.5745C19.0114 15.5781 19.0114 15.5818 19.0114 15.5854C19.0114 15.589 19.0114 15.5927 19.0114 15.5963C19.0114 15.6 19.0114 15.6036 19.0114 15.6073C19.0114 15.6109 19.0114 15.6146 19.0114 15.6182C19.0114 15.6219 19.0114 15.6255 19.0114 15.6292C19.0114 15.6329 19.0114 15.6365 19.0114 15.6402C19.0114 15.6439 19.0114 15.6475 19.0114 15.6512C19.0114 15.6549 19.0114 15.6586 19.0114 15.6623C19.0114 15.6659 19.0114 15.6696 19.0114 15.6733C19.0114 15.677 19.0114 15.6807 19.0114 15.6844C19.0114 15.6881 19.0114 15.6918 19.0114 15.6955C19.0114 15.6992 19.0114 15.7029 19.0114 15.7066C19.0114 15.7103 19.0114 15.714 19.0114 15.7177C19.0114 15.7214 19.0114 15.7252 19.0114 15.7289C19.0114 15.7326 19.0114 15.7363 19.0114 15.74C19.0114 15.7438 19.0114 15.7475 19.0114 15.7512C19.0114 15.755 19.0114 15.7587 19.0114 15.7624C19.0114 15.7662 19.0114 15.7699 19.0114 15.7737C19.0114 15.7774 19.0114 15.7812 19.0114 15.7849C19.0114 15.7887 19.0114 15.7924 19.0114 15.7962C19.0114 15.8 19.0114 15.8037 19.0114 15.8075C19.0114 15.8112 19.0114 15.815 19.0114 15.8188C19.0114 15.8226 19.0114 15.8263 19.0114 15.8301C19.0114 15.8339 19.0114 15.8377 19.0114 15.8415C19.0114 15.8452 19.0114 15.849 19.0114 15.8528C19.0114 15.8566 19.0114 15.8604 19.0114 15.8642C19.0114 15.868 19.0114 15.8718 19.0114 15.8756C19.0114 15.8794 19.0114 15.8832 19.0114 15.887C19.0114 15.8908 19.0114 15.8946 19.0114 15.8985C19.0114 15.9023 19.0114 15.9061 19.0114 15.9099C19.0114 15.9137 19.0114 15.9176 19.0114 15.9214C19.0114 15.9252 19.0114 15.9291 19.0114 15.9329C19.0114 15.9367 19.0114 15.9406 19.0114 15.9444C19.0114 15.9482 19.0114 15.9521 19.0114 15.9559C19.0114 15.9598 19.0114 15.9636 19.0114 15.9675C19.0114 15.9713 19.0114 15.9752 19.0114 15.9791C19.0114 15.9829 19.0114 15.9868 19.0114 15.9906C19.0114 15.9945 19.0114 15.9984 19.0114 16.0023C19.0114 16.0061 19.0114 16.01 19.0114 16.0139C19.0114 16.0178 19.0114 16.0216 19.0114 16.0255C19.0114 16.0294 19.0114 16.0333 19.0114 16.0372C19.0114 16.0411 19.0114 16.045 19.0114 16.0489C19.0114 16.0528 19.0114 16.0567 19.0114 16.0606C19.0114 16.0645 19.0114 16.0684 19.0114 16.0723C19.0114 16.0762 19.0114 16.0801 19.0114 16.084C19.0114 16.088 19.0114 16.0919 19.0114 16.0958C19.0114 16.0997 19.0114 16.1036 19.0114 16.1076C19.0114 16.1115 19.0114 16.1154 19.0114 16.1194C19.0114 16.1233 19.0114 16.1272 19.0114 16.1312C19.0114 16.1351 19.0114 16.1391 19.0114 16.143C19.0114 16.147 19.0114 16.1509 19.0114 16.1549C19.0114 16.1588 19.0114 16.1628 19.0114 16.1667C19.0114 16.1707 19.0114 16.1747 19.0114 16.1786C19.0114 16.1826 19.0114 16.1866 19.0114 16.1905C19.0114 16.1945 19.0114 16.1985 19.0114 16.2025C19.0114 16.2064 19.0114 16.2104 19.0114 16.2144C19.0114 16.2184 19.0114 16.2224 19.0114 16.2264C19.0114 16.2303 19.0114 16.2343 19.0114 16.2383C19.0114 16.2423 19.0114 16.2463 19.0114 16.2503C19.0114 16.2543 19.0114 16.2583 19.0114 16.2624C19.0114 16.2664 19.0114 16.2704 19.0114 16.2744H22.0114C22.0114 16.2704 22.0114 16.2664 22.0114 16.2624C22.0114 16.2583 22.0114 16.2543 22.0114 16.2503C22.0114 16.2463 22.0114 16.2423 22.0114 16.2383C22.0114 16.2343 22.0114 16.2303 22.0114 16.2264C22.0114 16.2224 22.0114 16.2184 22.0114 16.2144C22.0114 16.2104 22.0114 16.2064 22.0114 16.2025C22.0114 16.1985 22.0114 16.1945 22.0114 16.1905C22.0114 16.1866 22.0114 16.1826 22.0114 16.1786C22.0114 16.1747 22.0114 16.1707 22.0114 16.1667C22.0114 16.1628 22.0114 16.1588 22.0114 16.1549C22.0114 16.1509 22.0114 16.147 22.0114 16.143C22.0114 16.1391 22.0114 16.1351 22.0114 16.1312C22.0114 16.1272 22.0114 16.1233 22.0114 16.1194C22.0114 16.1154 22.0114 16.1115 22.0114 16.1076C22.0114 16.1036 22.0114 16.0997 22.0114 16.0958C22.0114 16.0919 22.0114 16.088 22.0114 16.084C22.0114 16.0801 22.0114 16.0762 22.0114 16.0723C22.0114 16.0684 22.0114 16.0645 22.0114 16.0606C22.0114 16.0567 22.0114 16.0528 22.0114 16.0489C22.0114 16.045 22.0114 16.0411 22.0114 16.0372C22.0114 16.0333 22.0114 16.0294 22.0114 16.0255C22.0114 16.0216 22.0114 16.0178 22.0114 16.0139C22.0114 16.01 22.0114 16.0061 22.0114 16.0023C22.0114 15.9984 22.0114 15.9945 22.0114 15.9906C22.0114 15.9868 22.0114 15.9829 22.0114 15.9791C22.0114 15.9752 22.0114 15.9713 22.0114 15.9675C22.0114 15.9636 22.0114 15.9598 22.0114 15.9559C22.0114 15.9521 22.0114 15.9482 22.0114 15.9444C22.0114 15.9406 22.0114 15.9367 22.0114 15.9329C22.0114 15.9291 22.0114 15.9252 22.0114 15.9214C22.0114 15.9176 22.0114 15.9137 22.0114 15.9099C22.0114 15.9061 22.0114 15.9023 22.0114 15.8985C22.0114 15.8946 22.0114 15.8908 22.0114 15.887C22.0114 15.8832 22.0114 15.8794 22.0114 15.8756C22.0114 15.8718 22.0114 15.868 22.0114 15.8642C22.0114 15.8604 22.0114 15.8566 22.0114 15.8528C22.0114 15.849 22.0114 15.8452 22.0114 15.8415C22.0114 15.8377 22.0114 15.8339 22.0114 15.8301C22.0114 15.8263 22.0114 15.8226 22.0114 15.8188C22.0114 15.815 22.0114 15.8112 22.0114 15.8075C22.0114 15.8037 22.0114 15.8 22.0114 15.7962C22.0114 15.7924 22.0114 15.7887 22.0114 15.7849C22.0114 15.7812 22.0114 15.7774 22.0114 15.7737C22.0114 15.7699 22.0114 15.7662 22.0114 15.7624C22.0114 15.7587 22.0114 15.755 22.0114 15.7512C22.0114 15.7475 22.0114 15.7438 22.0114 15.74C22.0114 15.7363 22.0114 15.7326 22.0114 15.7289C22.0114 15.7252 22.0114 15.7214 22.0114 15.7177C22.0114 15.714 22.0114 15.7103 22.0114 15.7066C22.0114 15.7029 22.0114 15.6992 22.0114 15.6955C22.0114 15.6918 22.0114 15.6881 22.0114 15.6844C22.0114 15.6807 22.0114 15.677 22.0114 15.6733C22.0114 15.6696 22.0114 15.6659 22.0114 15.6623C22.0114 15.6586 22.0114 15.6549 22.0114 15.6512C22.0114 15.6475 22.0114 15.6439 22.0114 15.6402C22.0114 15.6365 22.0114 15.6329 22.0114 15.6292C22.0114 15.6255 22.0114 15.6219 22.0114 15.6182C22.0114 15.6146 22.0114 15.6109 22.0114 15.6073C22.0114 15.6036 22.0114 15.6 22.0114 15.5963C22.0114 15.5927 22.0114 15.589 22.0114 15.5854C22.0114 15.5818 22.0114 15.5781 22.0114 15.5745C22.0114 15.5709 22.0114 15.5673 22.0114 15.5636C22.0114 15.56 22.0114 15.5564 22.0114 15.5528C22.0114 15.5492 22.0114 15.5455 22.0114 15.5419C22.0114 15.5383 22.0114 15.5347 22.0114 15.5311C22.0114 15.5275 22.0114 15.5239 22.0114 15.5203C22.0114 15.5167 22.0114 15.5131 22.0114 15.5095C22.0114 15.5059 22.0114 15.5023 22.0114 15.4988C22.0114 15.4952 22.0114 15.4916 22.0114 15.488C22.0114 15.4844 22.0114 15.4809 22.0114 15.4773C22.0114 15.4737 22.0114 15.4702 22.0114 15.4666C22.0114 15.463 22.0114 15.4595 22.0114 15.4559C22.0114 15.4524 22.0114 15.4488 22.0114 15.4452C22.0114 15.4417 22.0114 15.4381 22.0114 15.4346C22.0114 15.4311 22.0114 15.4275 22.0114 15.424C22.0114 15.4204 22.0114 15.4169 22.0114 15.4134C22.0114 15.4098 22.0114 15.4063 22.0114 15.4028C22.0114 15.3993 22.0114 15.3957 22.0114 15.3922C22.0114 15.3887 22.0114 15.3852 22.0114 15.3817C22.0114 15.3782 22.0114 15.3747 22.0114 15.3712C22.0114 15.3676 22.0114 15.3641 22.0114 15.3606C22.0114 15.3572 22.0114 15.3537 22.0114 15.3502C22.0114 15.3467 22.0114 15.3432 22.0114 15.3397C22.0114 15.3362 22.0114 15.3327 22.0114 15.3293C22.0114 15.3258 22.0114 15.3223 22.0114 15.3188C22.0114 15.3154 22.0114 15.3119 22.0114 15.3084C22.0114 15.305 22.0114 15.3015 22.0114 15.298C22.0114 15.2946 22.0114 15.2911 22.0114 15.2877C22.0114 15.2842 22.0114 15.2808 22.0114 15.2773C22.0114 15.2739 22.0114 15.2704 22.0114 15.267C22.0114 15.2636 22.0114 15.2601 22.0114 15.2567C22.0114 15.2533 22.0114 15.2498 22.0114 15.2464C22.0114 15.243 22.0114 15.2396 22.0114 15.2362C22.0114 15.2327 22.0114 15.2293 22.0114 15.2259C22.0114 15.2225 22.0114 15.2191 22.0114 15.2157C22.0114 15.2123 22.0114 15.2089 22.0114 15.2055C22.0114 15.2021 22.0114 15.1987 22.0114 15.1953C22.0114 15.1919 22.0114 15.1885 22.0114 15.1851C22.0114 15.1817 22.0114 15.1784 22.0114 15.175C22.0114 15.1716 22.0114 15.1682 22.0114 15.1649C22.0114 15.1615 22.0114 15.1581 22.0114 15.1548C22.0114 15.1514 22.0114 15.148 22.0114 15.1447C22.0114 15.1413 22.0114 15.138 22.0114 15.1346C22.0114 15.1313 22.0114 15.1279 22.0114 15.1246C22.0114 15.1212 22.0114 15.1179 22.0114 15.1146C22.0114 15.1112 22.0114 15.1079 22.0114 15.1046C22.0114 15.1012 22.0114 15.0979 22.0114 15.0946C22.0114 15.0913 22.0114 15.0879 22.0114 15.0846C22.0114 15.0813 22.0114 15.078 22.0114 15.0747C22.0114 15.0714 22.0114 15.0681 22.0114 15.0648C22.0114 15.0615 22.0114 15.0582 22.0114 15.0549C22.0114 15.0516 22.0114 15.0483 22.0114 15.045C22.0114 15.0417 22.0114 15.0384 22.0114 15.0351C22.0114 15.0319 22.0114 15.0286 22.0114 15.0253C22.0114 15.022 22.0114 15.0188 22.0114 15.0155C22.0114 15.0122 22.0114 15.0089 22.0114 15.0057C22.0114 15.0024 22.0114 14.9992 22.0114 14.9959C22.0114 14.9927 22.0114 14.9894 22.0114 14.9862C22.0114 14.9829 22.0114 14.9797 22.0114 14.9764C22.0114 14.9732 22.0114 14.97 22.0114 14.9667C22.0114 14.9635 22.0114 14.9603 22.0114 14.957C22.0114 14.9538 22.0114 14.9506 22.0114 14.9474C22.0114 14.9441 22.0114 14.9409 22.0114 14.9377C22.0114 14.9345 22.0114 14.9313 22.0114 14.9281C22.0114 14.9249 22.0114 14.9217 22.0114 14.9185C22.0114 14.9153 22.0114 14.9121 22.0114 14.9089C22.0114 14.9057 22.0114 14.9025 22.0114 14.8993C22.0114 14.8961 22.0114 14.8929 22.0114 14.8898C22.0114 14.8866 22.0114 14.8834 22.0114 14.8802C22.0114 14.8771 22.0114 14.8739 22.0114 14.8707C22.0114 14.8676 22.0114 14.8644 22.0114 14.8613C22.0114 14.8581 22.0114 14.8549 22.0114 14.8518C22.0114 14.8486 22.0114 14.8455 22.0114 14.8424C22.0114 14.8392 22.0114 14.8361 22.0114 14.8329C22.0114 14.8298 22.0114 14.8267 22.0114 14.8235C22.0114 14.8204 22.0114 14.8173 22.0114 14.8142C22.0114 14.811 22.0114 14.8079 22.0114 14.8048C22.0114 14.8017 22.0114 14.7986 22.0114 14.7955C22.0114 14.7924 22.0114 14.7893 22.0114 14.7862C22.0114 14.7831 22.0114 14.78 22.0114 14.7769C22.0114 14.7738 22.0114 14.7707 22.0114 14.7676C22.0114 14.7645 22.0114 14.7614 22.0114 14.7583C22.0114 14.7553 22.0114 14.7522 22.0114 14.7491C22.0114 14.746 22.0114 14.743 22.0114 14.7399C22.0114 14.7368 22.0114 14.7338 22.0114 14.7307C22.0114 14.7277 22.0114 14.7246 22.0114 14.7215C22.0114 14.7185 22.0114 14.7155 22.0114 14.7124C22.0114 14.7094 22.0114 14.7063 22.0114 14.7033C22.0114 14.7002 22.0114 14.6972 22.0114 14.6942C22.0114 14.6912 22.0114 14.6881 22.0114 14.6851C22.0114 14.6821 22.0114 14.6791 22.0114 14.676C22.0114 14.673 22.0114 14.67 22.0114 14.667C22.0114 14.664 22.0114 14.661 22.0114 14.658C22.0114 14.655 22.0114 14.652 22.0114 14.649C22.0114 14.646 22.0114 14.643 22.0114 14.64C22.0114 14.637 22.0114 14.634 22.0114 14.6311C22.0114 14.6281 22.0114 14.6251 22.0114 14.6221C22.0114 14.6192 22.0114 14.6162 22.0114 14.6132C22.0114 14.6103 22.0114 14.6073 22.0114 14.6043C22.0114 14.6014 22.0114 14.5984 22.0114 14.5955C22.0114 14.5925 22.0114 14.5896 22.0114 14.5866C22.0114 14.5837 22.0114 14.5807 22.0114 14.5778C22.0114 14.5749 22.0114 14.5719 22.0114 14.569C22.0114 14.5661 22.0114 14.5631 22.0114 14.5602C22.0114 14.5573 22.0114 14.5544 22.0114 14.5515C22.0114 14.5486 22.0114 14.5456 22.0114 14.5427C22.0114 14.5398 22.0114 14.5369 22.0114 14.534C22.0114 14.5311 22.0114 14.5282 22.0114 14.5253C22.0114 14.5224 22.0114 14.5195 22.0114 14.5167C22.0114 14.5138 22.0114 14.5109 22.0114 14.508C22.0114 14.5051 22.0114 14.5022 22.0114 14.4994C22.0114 14.4965 22.0114 14.4936 22.0114 14.4908C22.0114 14.4879 22.0114 14.485 22.0114 14.4822C22.0114 14.4793 22.0114 14.4765 22.0114 14.4736C22.0114 14.4708 22.0114 14.4679 22.0114 14.4651C22.0114 14.4622 22.0114 14.4594 22.0114 14.4566C22.0114 14.4537 22.0114 14.4509 22.0114 14.4481C22.0114 14.4452 22.0114 14.4424 22.0114 14.4396C22.0114 14.4368 22.0114 14.434 22.0114 14.4311C22.0114 14.4283 22.0114 14.4255 22.0114 14.4227C22.0114 14.4199 22.0114 14.4171 22.0114 14.4143C22.0114 14.4115 22.0114 14.4087 22.0114 14.4059C22.0114 14.4031 22.0114 14.4003 22.0114 14.3975C22.0114 14.3948 22.0114 14.392 22.0114 14.3892C22.0114 14.3864 22.0114 14.3837 22.0114 14.3809C22.0114 14.3781 22.0114 14.3753 22.0114 14.3726C22.0114 14.3698 22.0114 14.3671 22.0114 14.3643C22.0114 14.3616 22.0114 14.3588 22.0114 14.3561C22.0114 14.3533 22.0114 14.3506 22.0114 14.3478C22.0114 14.3451 22.0114 14.3423 22.0114 14.3396C22.0114 14.3369 22.0114 14.3341 22.0114 14.3314C22.0114 14.3287 22.0114 14.326 22.0114 14.3233C22.0114 14.3205 22.0114 14.3178 22.0114 14.3151C22.0114 14.3124 22.0114 14.3097 22.0114 14.307C22.0114 14.3043 22.0114 14.3016 22.0114 14.2989C22.0114 14.2962 22.0114 14.2935 22.0114 14.2908C22.0114 14.2881 22.0114 14.2854 22.0114 14.2828C22.0114 14.2801 22.0114 14.2774 22.0114 14.2747C22.0114 14.2721 22.0114 14.2694 22.0114 14.2667C22.0114 14.2641 22.0114 14.2614 22.0114 14.2587C22.0114 14.2561 22.0114 14.2534 22.0114 14.2508C22.0114 14.2481 22.0114 14.2455 22.0114 14.2428C22.0114 14.2402 22.0114 14.2375 22.0114 14.2349C22.0114 14.2323 22.0114 14.2296 22.0114 14.227C22.0114 14.2244 22.0114 14.2217 22.0114 14.2191C22.0114 14.2165 22.0114 14.2139 22.0114 14.2113C22.0114 14.2087 22.0114 14.2061 22.0114 14.2034C22.0114 14.2008 22.0114 14.1982 22.0114 14.1956C22.0114 14.193 22.0114 14.1904 22.0114 14.1879C22.0114 14.1853 22.0114 14.1827 22.0114 14.1801C22.0114 14.1775 22.0114 14.1749 22.0114 14.1723C22.0114 14.1698 22.0114 14.1672 22.0114 14.1646C22.0114 14.1621 22.0114 14.1595 22.0114 14.1569C22.0114 14.1544 22.0114 14.1518 22.0114 14.1493C22.0114 14.1467 22.0114 14.1442 22.0114 14.1416C22.0114 14.1391 22.0114 14.1365 22.0114 14.134C22.0114 14.1314 22.0114 14.1289 22.0114 14.1264C22.0114 14.1238 22.0114 14.1213 22.0114 14.1188C22.0114 14.1163 22.0114 14.1138 22.0114 14.1112C22.0114 14.1087 22.0114 14.1062 22.0114 14.1037C22.0114 14.1012 22.0114 14.0987 22.0114 14.0962C22.0114 14.0937 22.0114 14.0912 22.0114 14.0887C22.0114 14.0862 22.0114 14.0837 22.0114 14.0812C22.0114 14.0787 22.0114 14.0763 22.0114 14.0738C22.0114 14.0713 22.0114 14.0688 22.0114 14.0664C22.0114 14.0639 22.0114 14.0614 22.0114 14.059C22.0114 14.0565 22.0114 14.054 22.0114 14.0516C22.0114 14.0491 22.0114 14.0467 22.0114 14.0442C22.0114 14.0418 22.0114 14.0393 22.0114 14.0369C22.0114 14.0345 22.0114 14.032 22.0114 14.0296C22.0114 14.0272 22.0114 14.0247 22.0114 14.0223C22.0114 14.0199 22.0114 14.0175 22.0114 14.0151C22.0114 14.0126 22.0114 14.0102 22.0114 14.0078C22.0114 14.0054 22.0114 14.003 22.0114 14.0006C22.0114 13.9982 22.0114 13.9958 22.0114 13.9934C22.0114 13.991 22.0114 13.9886 22.0114 13.9862C22.0114 13.9839 22.0114 13.9815 22.0114 13.9791C22.0114 13.9767 22.0114 13.9743 22.0114 13.972C22.0114 13.9696 22.0114 13.9672 22.0114 13.9649C22.0114 13.9625 22.0114 13.9601 22.0114 13.9578C22.0114 13.9554 22.0114 13.9531 22.0114 13.9507C22.0114 13.9484 22.0114 13.9461 22.0114 13.9437C22.0114 13.9414 22.0114 13.939 22.0114 13.9367C22.0114 13.9344 22.0114 13.932 22.0114 13.9297C22.0114 13.9274 22.0114 13.9251 22.0114 13.9228C22.0114 13.9204 22.0114 13.9181 22.0114 13.9158C22.0114 13.9135 22.0114 13.9112 22.0114 13.9089C22.0114 13.9066 22.0114 13.9043 22.0114 13.902C22.0114 13.8997 22.0114 13.8974 22.0114 13.8952C22.0114 13.8929 22.0114 13.8906 22.0114 13.8883C22.0114 13.886 22.0114 13.8838 22.0114 13.8815C22.0114 13.8792 22.0114 13.877 22.0114 13.8747C22.0114 13.8724 22.0114 13.8702 22.0114 13.8679C22.0114 13.8657 22.0114 13.8634 22.0114 13.8612C22.0114 13.8589 22.0114 13.8567 22.0114 13.8544C22.0114 13.8522 22.0114 13.85 22.0114 13.8477C22.0114 13.8455 22.0114 13.8433 22.0114 13.8411C22.0114 13.8388 22.0114 13.8366 22.0114 13.8344C22.0114 13.8322 22.0114 13.83 22.0114 13.8278C22.0114 13.8256 22.0114 13.8234 22.0114 13.8212C22.0114 13.819 22.0114 13.8168 22.0114 13.8146C22.0114 13.8124 22.0114 13.8102 22.0114 13.808C22.0114 13.8058 22.0114 13.8037 22.0114 13.8015C22.0114 13.7993 22.0114 13.7971 22.0114 13.795C22.0114 13.7928 22.0114 13.7906 22.0114 13.7885C22.0114 13.7863 22.0114 13.7842 22.0114 13.782C22.0114 13.7799 22.0114 13.7777 22.0114 13.7756C22.0114 13.7734 22.0114 13.7713 22.0114 13.7691C22.0114 13.767 22.0114 13.7649 22.0114 13.7628C22.0114 13.7606 22.0114 13.7585 22.0114 13.7564C22.0114 13.7543 22.0114 13.7521 22.0114 13.75C22.0114 13.7479 22.0114 13.7458 22.0114 13.7437C22.0114 13.7416 22.0114 13.7395 22.0114 13.7374C22.0114 13.7353 22.0114 13.7332 22.0114 13.7311C22.0114 13.729 22.0114 13.727 22.0114 13.7249C22.0114 13.7228 22.0114 13.7207 22.0114 13.7186C22.0114 13.7166 22.0114 13.7145 22.0114 13.7124C22.0114 13.7104 22.0114 13.7083 22.0114 13.7063C22.0114 13.7042 22.0114 13.7022 22.0114 13.7001C22.0114 13.6981 22.0114 13.696 22.0114 13.694C22.0114 13.6919 22.0114 13.6899 22.0114 13.6879C22.0114 13.6858 22.0114 13.6838 22.0114 13.6818C22.0114 13.6798 22.0114 13.6777 22.0114 13.6757C22.0114 13.6737 22.0114 13.6717 22.0114 13.6697C22.0114 13.6677 22.0114 13.6657 22.0114 13.6637C22.0114 13.6617 22.0114 13.6597 22.0114 13.6577C22.0114 13.6557 22.0114 13.6537 22.0114 13.6517C22.0114 13.6497 22.0114 13.6478 22.0114 13.6458C22.0114 13.6438 22.0114 13.6418 22.0114 13.6399C22.0114 13.6379 22.0114 13.6359 22.0114 13.634C22.0114 13.632 22.0114 13.6301 22.0114 13.6281C22.0114 13.6262 22.0114 13.6242 22.0114 13.6223C22.0114 13.6203 22.0114 13.6184 22.0114 13.6164C22.0114 13.6145 22.0114 13.6126 22.0114 13.6106C22.0114 13.6087 22.0114 13.6068 22.0114 13.6049C22.0114 13.603 22.0114 13.601 22.0114 13.5991C22.0114 13.5972 22.0114 13.5953 22.0114 13.5934C22.0114 13.5915 22.0114 13.5896 22.0114 13.5877C22.0114 13.5858 22.0114 13.5839 22.0114 13.582C22.0114 13.5802 22.0114 13.5783 22.0114 13.5764C22.0114 13.5745 22.0114 13.5726 22.0114 13.5708C22.0114 13.5689 22.0114 13.567 22.0114 13.5652C22.0114 13.5633 22.0114 13.5614 22.0114 13.5596C22.0114 13.5577 22.0114 13.5559 22.0114 13.554C22.0114 13.5522 22.0114 13.5504 22.0114 13.5485C22.0114 13.5467 22.0114 13.5448 22.0114 13.543C22.0114 13.5412 22.0114 13.5394 22.0114 13.5375C22.0114 13.5357 22.0114 13.5339 22.0114 13.5321C22.0114 13.5303 22.0114 13.5285 22.0114 13.5267C22.0114 13.5249 22.0114 13.523 22.0114 13.5213C22.0114 13.5195 22.0114 13.5177 22.0114 13.5159C22.0114 13.5141 22.0114 13.5123 22.0114 13.5105C22.0114 13.5087 22.0114 13.507 22.0114 13.5052C22.0114 13.5034 22.0114 13.5016 22.0114 13.4999C22.0114 13.4981 22.0114 13.4964 22.0114 13.4946C22.0114 13.4928 22.0114 13.4911 22.0114 13.4894C22.0114 13.4876 22.0114 13.4859 22.0114 13.4841C22.0114 13.4824 22.0114 13.4806 22.0114 13.4789C22.0114 13.4772 22.0114 13.4755 22.0114 13.4737C22.0114 13.472 22.0114 13.4703 22.0114 13.4686C22.0114 13.4669 22.0114 13.4652 22.0114 13.4634C22.0114 13.4617 22.0114 13.46 22.0114 13.4583C22.0114 13.4566 22.0114 13.4549 22.0114 13.4533C22.0114 13.4516 22.0114 13.4499 22.0114 13.4482C22.0114 13.4465 22.0114 13.4448 22.0114 13.4432C22.0114 13.4415 22.0114 13.4398 22.0114 13.4382C22.0114 13.4365 22.0114 13.4348 22.0114 13.4332C22.0114 13.4315 22.0114 13.4299 22.0114 13.4282C22.0114 13.4266 22.0114 13.4249 22.0114 13.4233C22.0114 13.4217 22.0114 13.42 22.0114 13.4184C22.0114 13.4168 22.0114 13.4151 22.0114 13.4135C22.0114 13.4119 22.0114 13.4103 22.0114 13.4086C22.0114 13.407 22.0114 13.4054 22.0114 13.4038C22.0114 13.4022 22.0114 13.4006 22.0114 13.399C22.0114 13.3974 22.0114 13.3958 22.0114 13.3942C22.0114 13.3926 22.0114 13.391 22.0114 13.3895C22.0114 13.3879 22.0114 13.3863 22.0114 13.3847C22.0114 13.3832 22.0114 13.3816 22.0114 13.38C22.0114 13.3785 22.0114 13.3769 22.0114 13.3753C22.0114 13.3738 22.0114 13.3722 22.0114 13.3707C22.0114 13.3691 22.0114 13.3676 22.0114 13.3661C22.0114 13.3645 22.0114 13.363 22.0114 13.3615C22.0114 13.3599 22.0114 13.3584 22.0114 13.3569C22.0114 13.3554 22.0114 13.3538 22.0114 13.3523C22.0114 13.3508 22.0114 13.3493 22.0114 13.3478C22.0114 13.3463 22.0114 13.3448 22.0114 13.3433C22.0114 13.3418 22.0114 13.3403 22.0114 13.3388C22.0114 13.3373 22.0114 13.3358 22.0114 13.3344C22.0114 13.3329 22.0114 13.3314 22.0114 13.3299C22.0114 13.3285 22.0114 13.327 22.0114 13.3255C22.0114 13.3241 22.0114 13.3226 22.0114 13.3212C22.0114 13.3197 22.0114 13.3182 22.0114 13.3168C22.0114 13.3154 22.0114 13.3139 22.0114 13.3125C22.0114 13.311 22.0114 13.3096 22.0114 13.3082C22.0114 13.3067 22.0114 13.3053 22.0114 13.3039C22.0114 13.3025 22.0114 13.3011 22.0114 13.2996C22.0114 13.2982 22.0114 13.2968 22.0114 13.2954C22.0114 13.294 22.0114 13.2926 22.0114 13.2912C22.0114 13.2898 22.0114 13.2884 22.0114 13.2871C22.0114 13.2857 22.0114 13.2843 22.0114 13.2829C22.0114 13.2815 22.0114 13.2802 22.0114 13.2788C22.0114 13.2774 22.0114 13.2761 22.0114 13.2747C22.0114 13.2733 22.0114 13.272 22.0114 13.2706C22.0114 13.2693 22.0114 13.2679 22.0114 13.2666C22.0114 13.2652 22.0114 13.2639 22.0114 13.2626C22.0114 13.2612 22.0114 13.2599 22.0114 13.2586C22.0114 13.2572 22.0114 13.2559 22.0114 13.2546C22.0114 13.2533 22.0114 13.252 22.0114 13.2507C22.0114 13.2493 22.0114 13.248 22.0114 13.2467C22.0114 13.2454 22.0114 13.2441 22.0114 13.2429C22.0114 13.2416 22.0114 13.2403 22.0114 13.239C22.0114 13.2377 22.0114 13.2364 22.0114 13.2351C22.0114 13.2339 22.0114 13.2326 22.0114 13.2313C22.0114 13.2301 22.0114 13.2288 22.0114 13.2275C22.0114 13.2263 22.0114 13.225 22.0114 13.2238C22.0114 13.2225 22.0114 13.2213 22.0114 13.2201C22.0114 13.2188 22.0114 13.2176 22.0114 13.2163C22.0114 13.2151 22.0114 13.2139 22.0114 13.2127C22.0114 13.2114 22.0114 13.2102 22.0114 13.209C22.0114 13.2078 22.0114 13.2066 22.0114 13.2054C22.0114 13.2042 22.0114 13.203 22.0114 13.2018C22.0114 13.2006 22.0114 13.1994 22.0114 13.1982C22.0114 13.197 22.0114 13.1958 22.0114 13.1946C22.0114 13.1935 22.0114 13.1923 22.0114 13.1911C22.0114 13.1899 22.0114 13.1888 22.0114 13.1876C22.0114 13.1865 22.0114 13.1853 22.0114 13.1841C22.0114 13.183 22.0114 13.1818 22.0114 13.1807C22.0114 13.1796 22.0114 13.1784 22.0114 13.1773C22.0114 13.1761 22.0114 13.175 22.0114 13.1739C22.0114 13.1728 22.0114 13.1716 22.0114 13.1705C22.0114 13.1694 22.0114 13.1683 22.0114 13.1672C22.0114 13.1661 22.0114 13.165 22.0114 13.1639C22.0114 13.1628 22.0114 13.1617 22.0114 13.1606C22.0114 13.1595 22.0114 13.1584 22.0114 13.1573C22.0114 13.1562 22.0114 13.1551 22.0114 13.1541C22.0114 13.153 22.0114 13.1519 22.0114 13.1509C22.0114 13.1498 22.0114 13.1487 22.0114 13.1477C22.0114 13.1466 22.0114 13.1456 22.0114 13.1445C22.0114 13.1435 22.0114 13.1424 22.0114 13.1414C22.0114 13.1403 22.0114 13.1393 22.0114 13.1383C22.0114 13.1372 22.0114 13.1362 22.0114 13.1352C22.0114 13.1342 22.0114 13.1332 22.0114 13.1321C22.0114 13.1311 22.0114 13.1301 22.0114 13.1291C22.0114 13.1281 22.0114 13.1271 22.0114 13.1261C22.0114 13.1251 22.0114 13.1241 22.0114 13.1231C22.0114 13.1222 22.0114 13.1212 22.0114 13.1202C22.0114 13.1192 22.0114 13.1182 22.0114 13.1173C22.0114 13.1163 22.0114 13.1153 22.0114 13.1144C22.0114 13.1134 22.0114 13.1125 22.0114 13.1115C22.0114 13.1106 22.0114 13.1096 22.0114 13.1087C22.0114 13.1077 22.0114 13.1068 22.0114 13.1059C22.0114 13.1049 22.0114 13.104 22.0114 13.1031C22.0114 13.1022 22.0114 13.1012 22.0114 13.1003C22.0114 13.0994 22.0114 13.0985 22.0114 13.0976C22.0114 13.0967 22.0114 13.0958 22.0114 13.0949C22.0114 13.094 22.0114 13.0931 22.0114 13.0922C22.0114 13.0913 22.0114 13.0904 22.0114 13.0895C22.0114 13.0887 22.0114 13.0878 22.0114 13.0869C22.0114 13.0861 22.0114 13.0852 22.0114 13.0843C22.0114 13.0835 22.0114 13.0826 22.0114 13.0818C22.0114 13.0809 22.0114 13.0801 22.0114 13.0792C22.0114 13.0784 22.0114 13.0775 22.0114 13.0767C22.0114 13.0759 22.0114 13.075 22.0114 13.0742C22.0114 13.0734 22.0114 13.0725 22.0114 13.0717C22.0114 13.0709 22.0114 13.0701 22.0114 13.0693C22.0114 13.0685 22.0114 13.0677 22.0114 13.0669C22.0114 13.0661 22.0114 13.0653 22.0114 13.0645C22.0114 13.0637 22.0114 13.0629 22.0114 13.0621C22.0114 13.0614 22.0114 13.0606 22.0114 13.0598C22.0114 13.059 22.0114 13.0583 22.0114 13.0575C22.0114 13.0567 22.0114 13.056 22.0114 13.0552C22.0114 13.0545 22.0114 13.0537 22.0114 13.053C22.0114 13.0522 22.0114 13.0515 22.0114 13.0508C22.0114 13.05 22.0114 13.0493 22.0114 13.0486C22.0114 13.0478 22.0114 13.0471 22.0114 13.0464C22.0114 13.0457 22.0114 13.045 22.0114 13.0443C22.0114 13.0436 22.0114 13.0429 22.0114 13.0422C22.0114 13.0415 22.0114 13.0408 22.0114 13.0401C22.0114 13.0394 22.0114 13.0387 22.0114 13.038C22.0114 13.0373 22.0114 13.0367 22.0114 13.036C22.0114 13.0353 22.0114 13.0346 22.0114 13.034C22.0114 13.0333 22.0114 13.0327 22.0114 13.032C22.0114 13.0313 22.0114 13.0307 22.0114 13.0301C22.0114 13.0294 22.0114 13.0288 22.0114 13.0281C22.0114 13.0275 22.0114 13.0269 22.0114 13.0262C22.0114 13.0256 22.0114 13.025 22.0114 13.0244C22.0114 13.0238 22.0114 13.0231 22.0114 13.0225C22.0114 13.0219 22.0114 13.0213 22.0114 13.0207C22.0114 13.0201 22.0114 13.0195 22.0114 13.0189C22.0114 13.0183 22.0114 13.0178 22.0114 13.0172C22.0114 13.0166 22.0114 13.016 22.0114 13.0154C22.0114 13.0149 22.0114 13.0143 22.0114 13.0137C22.0114 13.0132 22.0114 13.0126 22.0114 13.0121C22.0114 13.0115 22.0114 13.011 22.0114 13.0104C22.0114 13.0099 22.0114 13.0093 22.0114 13.0088C22.0114 13.0083 22.0114 13.0077 22.0114 13.0072C22.0114 13.0067 22.0114 13.0062 22.0114 13.0056C22.0114 13.0051 22.0114 13.0046 22.0114 13.0041C22.0114 13.0036 22.0114 13.0031 22.0114 13.0026C22.0114 13.0021 22.0114 13.0016 22.0114 13.0011C22.0114 13.0006 22.0114 13.0001 22.0114 12.9997C22.0114 12.9992 22.0114 12.9987 22.0114 12.9982C22.0114 12.9978 22.0114 12.9973 22.0114 12.9968C22.0114 12.9964 22.0114 12.9959 22.0114 12.9955C22.0114 12.995 22.0114 12.9946 22.0114 12.9941C22.0114 12.9937 22.0114 12.9932 22.0114 12.9928C22.0114 12.9924 22.0114 12.992 22.0114 12.9915C22.0114 12.9911 22.0114 12.9907 22.0114 12.9903C22.0114 12.9899 22.0114 12.9894 22.0114 12.989C22.0114 12.9886 22.0114 12.9882 22.0114 12.9878C22.0114 12.9874 22.0114 12.987 22.0114 12.9867C22.0114 12.9863 22.0114 12.9859 22.0114 12.9855C22.0114 12.9851 22.0114 12.9848 22.0114 12.9844C22.0114 12.984 22.0114 12.9837 22.0114 12.9833C22.0114 12.9829 22.0114 12.9826 22.0114 12.9822C22.0114 12.9819 22.0114 12.9815 22.0114 12.9812C22.0114 12.9809 22.0114 12.9805 22.0114 12.9802C22.0114 12.9799 22.0114 12.9795 22.0114 12.9792C22.0114 12.9789 22.0114 12.9786 22.0114 12.9783C22.0114 12.9779 22.0114 12.9776 22.0114 12.9773C22.0114 12.977 22.0114 12.9767 22.0114 12.9764C22.0114 12.9761 22.0114 12.9759 22.0114 12.9756C22.0114 12.9753 22.0114 12.975 22.0114 12.9747C22.0114 12.9745 22.0114 12.9742 22.0114 12.9739C22.0114 12.9737 22.0114 12.9734 22.0114 12.9731C22.0114 12.9729 22.0114 12.9726 22.0114 12.9724C22.0114 12.9721 22.0114 12.9719 22.0114 12.9717C22.0114 12.9714 22.0114 12.9712 22.0114 12.971C22.0114 12.9707 22.0114 12.9705 22.0114 12.9703C22.0114 12.9701 22.0114 12.9699 22.0114 12.9696C22.0114 12.9694 22.0114 12.9692 22.0114 12.969C22.0114 12.9688 22.0114 12.9686 22.0114 12.9685C22.0114 12.9683 22.0114 12.9681 22.0114 12.9679C22.0114 12.9677 22.0114 12.9675 22.0114 12.9674C22.0114 12.9672 22.0114 12.967 22.0114 12.9669C22.0114 12.9667 22.0114 12.9665 22.0114 12.9664C22.0114 12.9662 22.0114 12.9661 22.0114 12.966C22.0114 12.9658 22.0114 12.9657 22.0114 12.9655C22.0114 12.9654 22.0114 12.9653 22.0114 12.9651C22.0114 12.965 22.0114 12.9649 22.0114 12.9648C22.0114 12.9647 22.0114 12.9646 22.0114 12.9645C22.0114 12.9644 22.0114 12.9643 22.0114 12.9642C22.0114 12.9641 22.0114 12.964 22.0114 12.9639C22.0114 12.9638 22.0114 12.9637 22.0114 12.9636C22.0114 12.9636 22.0114 12.9635 22.0114 12.9634C22.0114 12.9634 22.0114 12.9633 22.0114 12.9632C22.0114 12.9632 22.0114 12.9631 22.0114 12.9631C22.0114 12.963 22.0114 12.963 22.0114 12.963C22.0114 12.9629 22.0114 12.9629 22.0114 12.9629C22.0114 12.9628 22.0114 12.9628 22.0114 12.9628C22.0114 12.9628 22.0114 12.9628 22.0114 12.9627C22.0114 12.9627 22.0114 12.9627 20.5114 12.9627ZM19.0114 16.2744C19.0114 17.7874 18.7127 19.8868 17.6235 21.5612C16.6021 23.1314 14.7811 24.5 11.2857 24.5V27.5C15.7432 27.5 18.5351 25.6616 20.1383 23.197C21.6737 20.8365 22.0114 18.073 22.0114 16.2744H19.0114ZM11.2857 24.5C7.83362 24.5 6.00122 23.0544 4.95862 21.406C3.85195 19.6562 3.56076 17.5388 3.56076 16.2744H0.560764C0.560764 17.8649 0.905616 20.6102 2.4232 23.0096C4.00486 25.5103 6.78494 27.5 11.2857 27.5V24.5ZM3.56076 16.2744C3.56076 15.1538 3.58674 14.3504 3.61199 13.8341C3.62462 13.5759 3.63706 13.3896 3.64598 13.2714C3.65044 13.2122 3.65402 13.1701 3.6563 13.1446C3.65744 13.1318 3.65826 13.1232 3.6587 13.1187C3.65892 13.1164 3.65904 13.1151 3.65906 13.1149C3.65908 13.1148 3.65906 13.1149 3.65902 13.1153C3.659 13.1155 3.65898 13.1157 3.65895 13.116C3.65893 13.1162 3.65891 13.1164 3.65889 13.1166C3.65888 13.1167 3.65887 13.1168 3.65886 13.1169C3.65884 13.117 3.65883 13.1172 2.1668 12.9627C0.674775 12.8083 0.674758 12.8084 0.67474 12.8086C0.674733 12.8087 0.674715 12.8089 0.674702 12.809C0.674676 12.8092 0.674648 12.8095 0.674619 12.8098C0.67456 12.8104 0.674496 12.811 0.674425 12.8117C0.674284 12.8131 0.674119 12.8147 0.67393 12.8166C0.673553 12.8204 0.673083 12.8251 0.672525 12.8309C0.67141 12.8425 0.669948 12.8581 0.668188 12.8778C0.66467 12.9172 0.659965 12.973 0.654484 13.0457C0.643523 13.191 0.629457 13.4037 0.615574 13.6875C0.587808 14.2552 0.560764 15.1076 0.560764 16.2744H3.56076Z" fill="white"/>
</svg>
