<svg width="40" height="40" viewBox="0 0 40 40" fill="none" xmlns="http://www.w3.org/2000/svg">
<path d="M11.1344 19.0276L10.1737 18.2278C10.016 18.4172 9.91784 18.649 9.89153 18.8941L11.1344 19.0276ZM28.9694 19.0276H30.2194C30.2194 18.7181 30.1046 18.4196 29.8973 18.1899L28.9694 19.0276ZM9.375 10H19.6911V7.5H9.375V10ZM19.6911 10H30.625V7.5H19.6911V10ZM18.7304 7.95021L10.1737 18.2278L12.095 19.8274L20.6517 9.54979L18.7304 7.95021ZM18.7633 9.58763L28.0416 19.8652L29.8973 18.1899L20.6189 7.91237L18.7633 9.58763ZM28.9694 17.7776H11.1344V20.2776H28.9694V17.7776ZM28.9694 19.0276C27.7194 19.0276 27.7194 19.0276 27.7194 19.0276C27.7194 19.0276 27.7194 19.0276 27.7194 19.0276C27.7194 19.0276 27.7194 19.0277 27.7194 19.0277C27.7194 19.0277 27.7194 19.0277 27.7194 19.0278C27.7194 19.0278 27.7194 19.0278 27.7194 19.0279C27.7194 19.0279 27.7194 19.028 27.7194 19.028C27.7194 19.0281 27.7194 19.0282 27.7194 19.0282C27.7194 19.0283 27.7194 19.0283 27.7194 19.0284C27.7194 19.0285 27.7194 19.0286 27.7194 19.0286C27.7194 19.0287 27.7194 19.0288 27.7194 19.0289C27.7194 19.029 27.7194 19.0291 27.7194 19.0292C27.7194 19.0293 27.7194 19.0294 27.7194 19.0295C27.7194 19.0296 27.7194 19.0297 27.7194 19.0298C27.7194 19.0299 27.7194 19.0301 27.7194 19.0302C27.7194 19.0303 27.7194 19.0304 27.7194 19.0306C27.7194 19.0307 27.7194 19.0309 27.7194 19.031C27.7194 19.0311 27.7194 19.0313 27.7194 19.0314C27.7194 19.0316 27.7194 19.0317 27.7194 19.0319C27.7194 19.0321 27.7194 19.0322 27.7194 19.0324C27.7194 19.0326 27.7194 19.0327 27.7194 19.0329C27.7194 19.0331 27.7194 19.0333 27.7194 19.0335C27.7194 19.0337 27.7194 19.0339 27.7194 19.034C27.7194 19.0342 27.7194 19.0344 27.7194 19.0346C27.7194 19.0349 27.7194 19.0351 27.7194 19.0353C27.7194 19.0355 27.7194 19.0357 27.7194 19.0359C27.7194 19.0362 27.7194 19.0364 27.7194 19.0366C27.7194 19.0368 27.7194 19.0371 27.7194 19.0373C27.7194 19.0376 27.7194 19.0378 27.7194 19.0381C27.7194 19.0383 27.7194 19.0386 27.7194 19.0388C27.7194 19.0391 27.7194 19.0393 27.7194 19.0396C27.7194 19.0399 27.7194 19.0401 27.7194 19.0404C27.7194 19.0407 27.7194 19.041 27.7194 19.0413C27.7194 19.0415 27.7194 19.0418 27.7194 19.0421C27.7194 19.0424 27.7194 19.0427 27.7194 19.043C27.7194 19.0433 27.7194 19.0436 27.7194 19.0439C27.7194 19.0442 27.7194 19.0446 27.7194 19.0449C27.7194 19.0452 27.7194 19.0455 27.7194 19.0458C27.7194 19.0462 27.7194 19.0465 27.7194 19.0468C27.7194 19.0472 27.7194 19.0475 27.7194 19.0479C27.7194 19.0482 27.7194 19.0486 27.7194 19.0489C27.7194 19.0493 27.7194 19.0496 27.7194 19.05C27.7194 19.0504 27.7194 19.0507 27.7194 19.0511C27.7194 19.0515 27.7194 19.0518 27.7194 19.0522C27.7194 19.0526 27.7194 19.053 27.7194 19.0534C27.7194 19.0538 27.7194 19.0542 27.7194 19.0546C27.7194 19.055 27.7194 19.0554 27.7194 19.0558C27.7194 19.0562 27.7194 19.0566 27.7194 19.057C27.7194 19.0574 27.7194 19.0578 27.7194 19.0583C27.7194 19.0587 27.7194 19.0591 27.7194 19.0595C27.7194 19.06 27.7194 19.0604 27.7194 19.0609C27.7194 19.0613 27.7194 19.0617 27.7194 19.0622C27.7194 19.0626 27.7194 19.0631 27.7194 19.0636C27.7194 19.064 27.7194 19.0645 27.7194 19.0649C27.7194 19.0654 27.7194 19.0659 27.7194 19.0664C27.7194 19.0668 27.7194 19.0673 27.7194 19.0678C27.7194 19.0683 27.7194 19.0688 27.7194 19.0693C27.7194 19.0698 27.7194 19.0703 27.7194 19.0708C27.7194 19.0713 27.7194 19.0718 27.7194 19.0723C27.7194 19.0728 27.7194 19.0733 27.7194 19.0738C27.7194 19.0743 27.7194 19.0749 27.7194 19.0754C27.7194 19.0759 27.7194 19.0764 27.7194 19.077C27.7194 19.0775 27.7194 19.0781 27.7194 19.0786C27.7194 19.0791 27.7194 19.0797 27.7194 19.0802C27.7194 19.0808 27.7194 19.0814 27.7194 19.0819C27.7194 19.0825 27.7194 19.0831 27.7194 19.0836C27.7194 19.0842 27.7194 19.0848 27.7194 19.0853C27.7194 19.0859 27.7194 19.0865 27.7194 19.0871C27.7194 19.0877 27.7194 19.0883 27.7194 19.0889C27.7194 19.0895 27.7194 19.0901 27.7194 19.0907C27.7194 19.0913 27.7194 19.0919 27.7194 19.0925C27.7194 19.0931 27.7194 19.0937 27.7194 19.0944C27.7194 19.095 27.7194 19.0956 27.7194 19.0962C27.7194 19.0969 27.7194 19.0975 27.7194 19.0981C27.7194 19.0988 27.7194 19.0994 27.7194 19.1001C27.7194 19.1007 27.7194 19.1014 27.7194 19.102C27.7194 19.1027 27.7194 19.1033 27.7194 19.104C27.7194 19.1047 27.7194 19.1053 27.7194 19.106C27.7194 19.1067 27.7194 19.1074 27.7194 19.108C27.7194 19.1087 27.7194 19.1094 27.7194 19.1101C27.7194 19.1108 27.7194 19.1115 27.7194 19.1122C27.7194 19.1129 27.7194 19.1136 27.7194 19.1143C27.7194 19.115 27.7194 19.1157 27.7194 19.1164C27.7194 19.1171 27.7194 19.1179 27.7194 19.1186C27.7194 19.1193 27.7194 19.12 27.7194 19.1208C27.7194 19.1215 27.7194 19.1222 27.7194 19.123C27.7194 19.1237 27.7194 19.1245 27.7194 19.1252C27.7194 19.126 27.7194 19.1267 27.7194 19.1275C27.7194 19.1282 27.7194 19.129 27.7194 19.1297C27.7194 19.1305 27.7194 19.1313 27.7194 19.1321C27.7194 19.1328 27.7194 19.1336 27.7194 19.1344C27.7194 19.1352 27.7194 19.136 27.7194 19.1368C27.7194 19.1375 27.7194 19.1383 27.7194 19.1391C27.7194 19.1399 27.7194 19.1407 27.7194 19.1416C27.7194 19.1424 27.7194 19.1432 27.7194 19.144C27.7194 19.1448 27.7194 19.1456 27.7194 19.1465C27.7194 19.1473 27.7194 19.1481 27.7194 19.1489C27.7194 19.1498 27.7194 19.1506 27.7194 19.1515C27.7194 19.1523 27.7194 19.1531 27.7194 19.154C27.7194 19.1548 27.7194 19.1557 27.7194 19.1565C27.7194 19.1574 27.7194 19.1583 27.7194 19.1591C27.7194 19.16 27.7194 19.1609 27.7194 19.1617C27.7194 19.1626 27.7194 19.1635 27.7194 19.1644C27.7194 19.1653 27.7194 19.1662 27.7194 19.167C27.7194 19.1679 27.7194 19.1688 27.7194 19.1697C27.7194 19.1706 27.7194 19.1715 27.7194 19.1724C27.7194 19.1734 27.7194 19.1743 27.7194 19.1752C27.7194 19.1761 27.7194 19.177 27.7194 19.1779C27.7194 19.1789 27.7194 19.1798 27.7194 19.1807C27.7194 19.1817 27.7194 19.1826 27.7194 19.1835C27.7194 19.1845 27.7194 19.1854 27.7194 19.1864C27.7194 19.1873 27.7194 19.1883 27.7194 19.1892C27.7194 19.1902 27.7194 19.1912 27.7194 19.1921C27.7194 19.1931 27.7194 19.1941 27.7194 19.195C27.7194 19.196 27.7194 19.197 27.7194 19.198C27.7194 19.199 27.7194 19.1999 27.7194 19.2009C27.7194 19.2019 27.7194 19.2029 27.7194 19.2039C27.7194 19.2049 27.7194 19.2059 27.7194 19.2069C27.7194 19.2079 27.7194 19.209 27.7194 19.21C27.7194 19.211 27.7194 19.212 27.7194 19.213C27.7194 19.2141 27.7194 19.2151 27.7194 19.2161C27.7194 19.2171 27.7194 19.2182 27.7194 19.2192C27.7194 19.2203 27.7194 19.2213 27.7194 19.2224C27.7194 19.2234 27.7194 19.2245 27.7194 19.2255C27.7194 19.2266 27.7194 19.2276 27.7194 19.2287C27.7194 19.2298 27.7194 19.2308 27.7194 19.2319C27.7194 19.233 27.7194 19.2341 27.7194 19.2351C27.7194 19.2362 27.7194 19.2373 27.7194 19.2384C27.7194 19.2395 27.7194 19.2406 27.7194 19.2417C27.7194 19.2428 27.7194 19.2439 27.7194 19.245C27.7194 19.2461 27.7194 19.2472 27.7194 19.2483C27.7194 19.2494 27.7194 19.2505 27.7194 19.2517C27.7194 19.2528 27.7194 19.2539 27.7194 19.255C27.7194 19.2562 27.7194 19.2573 27.7194 19.2584C27.7194 19.2596 27.7194 19.2607 27.7194 19.2619C27.7194 19.263 27.7194 19.2642 27.7194 19.2653C27.7194 19.2665 27.7194 19.2676 27.7194 19.2688C27.7194 19.27 27.7194 19.2711 27.7194 19.2723C27.7194 19.2735 27.7194 19.2746 27.7194 19.2758C27.7194 19.277 27.7194 19.2782 27.7194 19.2794C27.7194 19.2806 27.7194 19.2818 27.7194 19.283C27.7194 19.2841 27.7194 19.2853 27.7194 19.2865C27.7194 19.2878 27.7194 19.289 27.7194 19.2902C27.7194 19.2914 27.7194 19.2926 27.7194 19.2938C27.7194 19.295 27.7194 19.2963 27.7194 19.2975C27.7194 19.2987 27.7194 19.2999 27.7194 19.3012C27.7194 19.3024 27.7194 19.3037 27.7194 19.3049C27.7194 19.3061 27.7194 19.3074 27.7194 19.3086C27.7194 19.3099 27.7194 19.3112 27.7194 19.3124C27.7194 19.3137 27.7194 19.3149 27.7194 19.3162C27.7194 19.3175 27.7194 19.3187 27.7194 19.32C27.7194 19.3213 27.7194 19.3226 27.7194 19.3239C27.7194 19.3251 27.7194 19.3264 27.7194 19.3277C27.7194 19.329 27.7194 19.3303 27.7194 19.3316C27.7194 19.3329 27.7194 19.3342 27.7194 19.3355C27.7194 19.3368 27.7194 19.3381 27.7194 19.3395C27.7194 19.3408 27.7194 19.3421 27.7194 19.3434C27.7194 19.3447 27.7194 19.3461 27.7194 19.3474C27.7194 19.3487 27.7194 19.3501 27.7194 19.3514C27.7194 19.3528 27.7194 19.3541 27.7194 19.3554C27.7194 19.3568 27.7194 19.3581 27.7194 19.3595C27.7194 19.3609 27.7194 19.3622 27.7194 19.3636C27.7194 19.3649 27.7194 19.3663 27.7194 19.3677C27.7194 19.3691 27.7194 19.3704 27.7194 19.3718C27.7194 19.3732 27.7194 19.3746 27.7194 19.376C27.7194 19.3773 27.7194 19.3787 27.7194 19.3801C27.7194 19.3815 27.7194 19.3829 27.7194 19.3843C27.7194 19.3857 27.7194 19.3871 27.7194 19.3886C27.7194 19.39 27.7194 19.3914 27.7194 19.3928C27.7194 19.3942 27.7194 19.3956 27.7194 19.3971C27.7194 19.3985 27.7194 19.3999 27.7194 19.4014C27.7194 19.4028 27.7194 19.4042 27.7194 19.4057C27.7194 19.4071 27.7194 19.4086 27.7194 19.41C27.7194 19.4115 27.7194 19.4129 27.7194 19.4144C27.7194 19.4158 27.7194 19.4173 27.7194 19.4188C27.7194 19.4202 27.7194 19.4217 27.7194 19.4232C27.7194 19.4247 27.7194 19.4261 27.7194 19.4276C27.7194 19.4291 27.7194 19.4306 27.7194 19.4321C27.7194 19.4336 27.7194 19.4351 27.7194 19.4366C27.7194 19.4381 27.7194 19.4396 27.7194 19.4411C27.7194 19.4426 27.7194 19.4441 27.7194 19.4456C27.7194 19.4471 27.7194 19.4486 27.7194 19.4502C27.7194 19.4517 27.7194 19.4532 27.7194 19.4547C27.7194 19.4563 27.7194 19.4578 27.7194 19.4593C27.7194 19.4609 27.7194 19.4624 27.7194 19.464C27.7194 19.4655 27.7194 19.4671 27.7194 19.4686C27.7194 19.4702 27.7194 19.4717 27.7194 19.4733C27.7194 19.4748 27.7194 19.4764 27.7194 19.478C27.7194 19.4795 27.7194 19.4811 27.7194 19.4827C27.7194 19.4843 27.7194 19.4858 27.7194 19.4874C27.7194 19.489 27.7194 19.4906 27.7194 19.4922C27.7194 19.4938 27.7194 19.4954 27.7194 19.497C27.7194 19.4986 27.7194 19.5002 27.7194 19.5018C27.7194 19.5034 27.7194 19.505 27.7194 19.5066C27.7194 19.5082 27.7194 19.5099 27.7194 19.5115C27.7194 19.5131 27.7194 19.5147 27.7194 19.5164C27.7194 19.518 27.7194 19.5196 27.7194 19.5213C27.7194 19.5229 27.7194 19.5245 27.7194 19.5262C27.7194 19.5278 27.7194 19.5295 27.7194 19.5311C27.7194 19.5328 27.7194 19.5345 27.7194 19.5361C27.7194 19.5378 27.7194 19.5394 27.7194 19.5411C27.7194 19.5428 27.7194 19.5445 27.7194 19.5461C27.7194 19.5478 27.7194 19.5495 27.7194 19.5512C27.7194 19.5529 27.7194 19.5545 27.7194 19.5562C27.7194 19.5579 27.7194 19.5596 27.7194 19.5613C27.7194 19.563 27.7194 19.5647 27.7194 19.5664C27.7194 19.5681 27.7194 19.5699 27.7194 19.5716C27.7194 19.5733 27.7194 19.575 27.7194 19.5767C27.7194 19.5785 27.7194 19.5802 27.7194 19.5819C27.7194 19.5836 27.7194 19.5854 27.7194 19.5871C27.7194 19.5889 27.7194 19.5906 27.7194 19.5923C27.7194 19.5941 27.7194 19.5958 27.7194 19.5976C27.7194 19.5993 27.7194 19.6011 27.7194 19.6029C27.7194 19.6046 27.7194 19.6064 27.7194 19.6082C27.7194 19.6099 27.7194 19.6117 27.7194 19.6135C27.7194 19.6153 27.7194 19.617 27.7194 19.6188C27.7194 19.6206 27.7194 19.6224 27.7194 19.6242C27.7194 19.626 27.7194 19.6278 27.7194 19.6296C27.7194 19.6314 27.7194 19.6332 27.7194 19.635C27.7194 19.6368 27.7194 19.6386 27.7194 19.6404C27.7194 19.6422 27.7194 19.644 27.7194 19.6459C27.7194 19.6477 27.7194 19.6495 27.7194 19.6513C27.7194 19.6532 27.7194 19.655 27.7194 19.6568C27.7194 19.6587 27.7194 19.6605 27.7194 19.6624C27.7194 19.6642 27.7194 19.6661 27.7194 19.6679C27.7194 19.6698 27.7194 19.6716 27.7194 19.6735C27.7194 19.6753 27.7194 19.6772 27.7194 19.6791C27.7194 19.6809 27.7194 19.6828 27.7194 19.6847C27.7194 19.6866 27.7194 19.6884 27.7194 19.6903C27.7194 19.6922 27.7194 19.6941 27.7194 19.696C27.7194 19.6979 27.7194 19.6998 27.7194 19.7017C27.7194 19.7036 27.7194 19.7055 27.7194 19.7074C27.7194 19.7093 27.7194 19.7112 27.7194 19.7131C27.7194 19.715 27.7194 19.7169 27.7194 19.7189C27.7194 19.7208 27.7194 19.7227 27.7194 19.7246C27.7194 19.7266 27.7194 19.7285 27.7194 19.7304C27.7194 19.7324 27.7194 19.7343 27.7194 19.7362C27.7194 19.7382 27.7194 19.7401 27.7194 19.7421C27.7194 19.744 27.7194 19.746 27.7194 19.7479C27.7194 19.7499 27.7194 19.7519 27.7194 19.7538C27.7194 19.7558 27.7194 19.7578 27.7194 19.7597C27.7194 19.7617 27.7194 19.7637 27.7194 19.7657C27.7194 19.7676 27.7194 19.7696 27.7194 19.7716C27.7194 19.7736 27.7194 19.7756 27.7194 19.7776C27.7194 19.7796 27.7194 19.7816 27.7194 19.7836C27.7194 19.7856 27.7194 19.7876 27.7194 19.7896C27.7194 19.7916 27.7194 19.7936 27.7194 19.7956C27.7194 19.7977 27.7194 19.7997 27.7194 19.8017C27.7194 19.8037 27.7194 19.8057 27.7194 19.8078C27.7194 19.8098 27.7194 19.8118 27.7194 19.8139C27.7194 19.8159 27.7194 19.818 27.7194 19.82C27.7194 19.8221 27.7194 19.8241 27.7194 19.8262C27.7194 19.8282 27.7194 19.8303 27.7194 19.8323C27.7194 19.8344 27.7194 19.8365 27.7194 19.8385C27.7194 19.8406 27.7194 19.8427 27.7194 19.8448C27.7194 19.8468 27.7194 19.8489 27.7194 19.851C27.7194 19.8531 27.7194 19.8552 27.7194 19.8573C27.7194 19.8593 27.7194 19.8614 27.7194 19.8635C27.7194 19.8656 27.7194 19.8677 27.7194 19.8698C27.7194 19.872 27.7194 19.8741 27.7194 19.8762C27.7194 19.8783 27.7194 19.8804 27.7194 19.8825C27.7194 19.8846 27.7194 19.8868 27.7194 19.8889C27.7194 19.891 27.7194 19.8932 27.7194 19.8953C27.7194 19.8974 27.7194 19.8996 27.7194 19.9017C27.7194 19.9038 27.7194 19.906 27.7194 19.9081C27.7194 19.9103 27.7194 19.9124 27.7194 19.9146C27.7194 19.9168 27.7194 19.9189 27.7194 19.9211C27.7194 19.9232 27.7194 19.9254 27.7194 19.9276C27.7194 19.9298 27.7194 19.9319 27.7194 19.9341C27.7194 19.9363 27.7194 19.9385 27.7194 19.9407C27.7194 19.9428 27.7194 19.945 27.7194 19.9472C27.7194 19.9494 27.7194 19.9516 27.7194 19.9538C27.7194 19.956 27.7194 19.9582 27.7194 19.9604C27.7194 19.9626 27.7194 19.9649 27.7194 19.9671C27.7194 19.9693 27.7194 19.9715 27.7194 19.9737C27.7194 19.9759 27.7194 19.9782 27.7194 19.9804C27.7194 19.9826 27.7194 19.9849 27.7194 19.9871C27.7194 19.9893 27.7194 19.9916 27.7194 19.9938C27.7194 19.9961 27.7194 19.9983 27.7194 20.0006C27.7194 20.0028 27.7194 20.0051 27.7194 20.0073C27.7194 20.0096 27.7194 20.0118 27.7194 20.0141C27.7194 20.0164 27.7194 20.0186 27.7194 20.0209C27.7194 20.0232 27.7194 20.0255 27.7194 20.0278C27.7194 20.03 27.7194 20.0323 27.7194 20.0346C27.7194 20.0369 27.7194 20.0392 27.7194 20.0415C27.7194 20.0438 27.7194 20.0461 27.7194 20.0484C27.7194 20.0507 27.7194 20.053 27.7194 20.0553C27.7194 20.0576 27.7194 20.0599 27.7194 20.0622C27.7194 20.0645 27.7194 20.0669 27.7194 20.0692C27.7194 20.0715 27.7194 20.0738 27.7194 20.0762C27.7194 20.0785 27.7194 20.0808 27.7194 20.0832C27.7194 20.0855 27.7194 20.0878 27.7194 20.0902C27.7194 20.0925 27.7194 20.0949 27.7194 20.0972C27.7194 20.0996 27.7194 20.1019 27.7194 20.1043C27.7194 20.1066 27.7194 20.109 27.7194 20.1114C27.7194 20.1137 27.7194 20.1161 27.7194 20.1185C27.7194 20.1209 27.7194 20.1232 27.7194 20.1256C27.7194 20.128 27.7194 20.1304 27.7194 20.1328C27.7194 20.1351 27.7194 20.1375 27.7194 20.1399C27.7194 20.1423 27.7194 20.1447 27.7194 20.1471C27.7194 20.1495 27.7194 20.1519 27.7194 20.1543C27.7194 20.1567 27.7194 20.1592 27.7194 20.1616C27.7194 20.164 27.7194 20.1664 27.7194 20.1688C27.7194 20.1713 27.7194 20.1737 27.7194 20.1761C27.7194 20.1785 27.7194 20.181 27.7194 20.1834C27.7194 20.1858 27.7194 20.1883 27.7194 20.1907C27.7194 20.1932 27.7194 20.1956 27.7194 20.1981C27.7194 20.2005 27.7194 20.203 27.7194 20.2054C27.7194 20.2079 27.7194 20.2104 27.7194 20.2128C27.7194 20.2153 27.7194 20.2177 27.7194 20.2202C27.7194 20.2227 27.7194 20.2252 27.7194 20.2276C27.7194 20.2301 27.7194 20.2326 27.7194 20.2351C27.7194 20.2376 27.7194 20.2401 27.7194 20.2426C27.7194 20.2451 27.7194 20.2475 27.7194 20.25C27.7194 20.2525 27.7194 20.2551 27.7194 20.2576C27.7194 20.2601 27.7194 20.2626 27.7194 20.2651C27.7194 20.2676 27.7194 20.2701 27.7194 20.2726C27.7194 20.2752 27.7194 20.2777 27.7194 20.2802C27.7194 20.2827 27.7194 20.2853 27.7194 20.2878C27.7194 20.2903 27.7194 20.2929 27.7194 20.2954C27.7194 20.298 27.7194 20.3005 27.7194 20.3031C27.7194 20.3056 27.7194 20.3082 27.7194 20.3107C27.7194 20.3133 27.7194 20.3158 27.7194 20.3184C27.7194 20.3209 27.7194 20.3235 27.7194 20.3261C27.7194 20.3287 27.7194 20.3312 27.7194 20.3338C27.7194 20.3364 27.7194 20.339 27.7194 20.3415C27.7194 20.3441 27.7194 20.3467 27.7194 20.3493C27.7194 20.3519 27.7194 20.3545 27.7194 20.3571C27.7194 20.3597 27.7194 20.3623 27.7194 20.3649C27.7194 20.3675 27.7194 20.3701 27.7194 20.3727C27.7194 20.3753 27.7194 20.3779 27.7194 20.3805C27.7194 20.3832 27.7194 20.3858 27.7194 20.3884C27.7194 20.391 27.7194 20.3937 27.7194 20.3963C27.7194 20.3989 27.7194 20.4016 27.7194 20.4042C27.7194 20.4068 27.7194 20.4095 27.7194 20.4121C27.7194 20.4148 27.7194 20.4174 27.7194 20.4201C27.7194 20.4227 27.7194 20.4254 27.7194 20.428C27.7194 20.4307 27.7194 20.4333 27.7194 20.436C27.7194 20.4387 27.7194 20.4413 27.7194 20.444C27.7194 20.4467 27.7194 20.4494 27.7194 20.452C27.7194 20.4547 27.7194 20.4574 27.7194 20.4601C27.7194 20.4628 27.7194 20.4655 27.7194 20.4682C27.7194 20.4709 27.7194 20.4736 27.7194 20.4763C27.7194 20.479 27.7194 20.4817 27.7194 20.4844C27.7194 20.4871 27.7194 20.4898 27.7194 20.4925C27.7194 20.4952 27.7194 20.4979 27.7194 20.5006C27.7194 20.5034 27.7194 20.5061 27.7194 20.5088C27.7194 20.5115 27.7194 20.5143 27.7194 20.517C27.7194 20.5197 27.7194 20.5225 27.7194 20.5252C27.7194 20.528 27.7194 20.5307 27.7194 20.5334C27.7194 20.5362 27.7194 20.5389 27.7194 20.5417C27.7194 20.5444 27.7194 20.5472 27.7194 20.55C27.7194 20.5527 27.7194 20.5555 27.7194 20.5583C27.7194 20.561 27.7194 20.5638 27.7194 20.5666C27.7194 20.5693 27.7194 20.5721 27.7194 20.5749C27.7194 20.5777 27.7194 20.5805 27.7194 20.5833C27.7194 20.586 27.7194 20.5888 27.7194 20.5916C27.7194 20.5944 27.7194 20.5972 27.7194 20.6C27.7194 20.6028 27.7194 20.6056 27.7194 20.6084C27.7194 20.6112 27.7194 20.614 27.7194 20.6169C27.7194 20.6197 27.7194 20.6225 27.7194 20.6253C27.7194 20.6281 27.7194 20.631 27.7194 20.6338C27.7194 20.6366 27.7194 20.6394 27.7194 20.6423C27.7194 20.6451 27.7194 20.648 27.7194 20.6508C27.7194 20.6536 27.7194 20.6565 27.7194 20.6593C27.7194 20.6622 27.7194 20.665 27.7194 20.6679C27.7194 20.6707 27.7194 20.6736 27.7194 20.6765C27.7194 20.6793 27.7194 20.6822 27.7194 20.685C27.7194 20.6879 27.7194 20.6908 27.7194 20.6937C27.7194 20.6965 27.7194 20.6994 27.7194 20.7023C27.7194 20.7052 27.7194 20.7081 27.7194 20.7109C27.7194 20.7138 27.7194 20.7167 27.7194 20.7196C27.7194 20.7225 27.7194 20.7254 27.7194 20.7283C27.7194 20.7312 27.7194 20.7341 27.7194 20.737C27.7194 20.7399 27.7194 20.7428 27.7194 20.7458C27.7194 20.7487 27.7194 20.7516 27.7194 20.7545C27.7194 20.7574 27.7194 20.7604 27.7194 20.7633C27.7194 20.7662 27.7194 20.7691 27.7194 20.7721C27.7194 20.775 27.7194 20.7779 27.7194 20.7809C27.7194 20.7838 27.7194 20.7868 27.7194 20.7897C27.7194 20.7927 27.7194 20.7956 27.7194 20.7986C27.7194 20.8015 27.7194 20.8045 27.7194 20.8074C27.7194 20.8104 27.7194 20.8134 27.7194 20.8163C27.7194 20.8193 27.7194 20.8223 27.7194 20.8252C27.7194 20.8282 27.7194 20.8312 27.7194 20.8342C27.7194 20.8371 27.7194 20.8401 27.7194 20.8431C27.7194 20.8461 27.7194 20.8491 27.7194 20.8521C27.7194 20.8551 27.7194 20.8581 27.7194 20.8611C27.7194 20.8641 27.7194 20.8671 27.7194 20.8701C27.7194 20.8731 27.7194 20.8761 27.7194 20.8791C27.7194 20.8821 27.7194 20.8851 27.7194 20.8881C27.7194 20.8912 27.7194 20.8942 27.7194 20.8972C27.7194 20.9002 27.7194 20.9033 27.7194 20.9063C27.7194 20.9093 27.7194 20.9124 27.7194 20.9154C27.7194 20.9184 27.7194 20.9215 27.7194 20.9245C27.7194 20.9276 27.7194 20.9306 27.7194 20.9337C27.7194 20.9367 27.7194 20.9398 27.7194 20.9428C27.7194 20.9459 27.7194 20.949 27.7194 20.952C27.7194 20.9551 27.7194 20.9581 27.7194 20.9612C27.7194 20.9643 27.7194 20.9674 27.7194 20.9704C27.7194 20.9735 27.7194 20.9766 27.7194 20.9797C27.7194 20.9828 27.7194 20.9858 27.7194 20.9889C27.7194 20.992 27.7194 20.9951 27.7194 20.9982C27.7194 21.0013 27.7194 21.0044 27.7194 21.0075C27.7194 21.0106 27.7194 21.0137 27.7194 21.0168C27.7194 21.0199 27.7194 21.0231 27.7194 21.0262C27.7194 21.0293 27.7194 21.0324 27.7194 21.0355C27.7194 21.0386 27.7194 21.0418 27.7194 21.0449C27.7194 21.048 27.7194 21.0512 27.7194 21.0543C27.7194 21.0574 27.7194 21.0606 27.7194 21.0637C27.7194 21.0668 27.7194 21.07 27.7194 21.0731C27.7194 21.0763 27.7194 21.0794 27.7194 21.0826C27.7194 21.0857 27.7194 21.0889 27.7194 21.0921C27.7194 21.0952 27.7194 21.0984 27.7194 21.1016C27.7194 21.1047 27.7194 21.1079 27.7194 21.1111C27.7194 21.1142 27.7194 21.1174 27.7194 21.1206C27.7194 21.1238 27.7194 21.127 27.7194 21.1301C27.7194 21.1333 27.7194 21.1365 27.7194 21.1397C27.7194 21.1429 27.7194 21.1461 27.7194 21.1493C27.7194 21.1525 27.7194 21.1557 27.7194 21.1589C27.7194 21.1621 27.7194 21.1653 27.7194 21.1685C27.7194 21.1717 27.7194 21.1749 27.7194 21.1782C27.7194 21.1814 27.7194 21.1846 27.7194 21.1878C27.7194 21.191 27.7194 21.1943 27.7194 21.1975C27.7194 21.2007 27.7194 21.204 27.7194 21.2072C27.7194 21.2104 27.7194 21.2137 27.7194 21.2169C27.7194 21.2202 27.7194 21.2234 27.7194 21.2266C27.7194 21.2299 27.7194 21.2331 27.7194 21.2364C27.7194 21.2397 27.7194 21.2429 27.7194 21.2462C27.7194 21.2494 27.7194 21.2527 27.7194 21.256C27.7194 21.2592 27.7194 21.2625 27.7194 21.2658C27.7194 21.2691 27.7194 21.2723 27.7194 21.2756C27.7194 21.2789 27.7194 21.2822 27.7194 21.2855C27.7194 21.2887 27.7194 21.292 27.7194 21.2953C27.7194 21.2986 27.7194 21.3019 27.7194 21.3052C27.7194 21.3085 27.7194 21.3118 27.7194 21.3151C27.7194 21.3184 27.7194 21.3217 27.7194 21.325C27.7194 21.3283 27.7194 21.3317 27.7194 21.335C27.7194 21.3383 27.7194 21.3416 27.7194 21.3449C27.7194 21.3483 27.7194 21.3516 27.7194 21.3549C27.7194 21.3582 27.7194 21.3616 27.7194 21.3649C27.7194 21.3683 27.7194 21.3716 27.7194 21.3749C27.7194 21.3783 27.7194 21.3816 27.7194 21.385C27.7194 21.3883 27.7194 21.3917 27.7194 21.395C27.7194 21.3984 27.7194 21.4017 27.7194 21.4051C27.7194 21.4085 27.7194 21.4118 27.7194 21.4152C27.7194 21.4185 27.7194 21.4219 27.7194 21.4253C27.7194 21.4287 27.7194 21.432 27.7194 21.4354C27.7194 21.4388 27.7194 21.4422 27.7194 21.4456C27.7194 21.4489 27.7194 21.4523 27.7194 21.4557C27.7194 21.4591 27.7194 21.4625 27.7194 21.4659C27.7194 21.4693 27.7194 21.4727 27.7194 21.4761C27.7194 21.4795 27.7194 21.4829 27.7194 21.4863C27.7194 21.4897 27.7194 21.4931 27.7194 21.4966C27.7194 21.5 27.7194 21.5034 27.7194 21.5068C27.7194 21.5102 27.7194 21.5137 27.7194 21.5171C27.7194 21.5205 27.7194 21.5239 27.7194 21.5274C27.7194 21.5308 27.7194 21.5343 27.7194 21.5377C27.7194 21.5411 27.7194 21.5446 27.7194 21.548C27.7194 21.5515 27.7194 21.5549 27.7194 21.5584C27.7194 21.5618 27.7194 21.5653 27.7194 21.5687C27.7194 21.5722 27.7194 21.5756 27.7194 21.5791C27.7194 21.5826 27.7194 21.586 27.7194 21.5895C27.7194 21.593 27.7194 21.5965 27.7194 21.5999C27.7194 21.6034 27.7194 21.6069 27.7194 21.6104C27.7194 21.6139 27.7194 21.6173 27.7194 21.6208C27.7194 21.6243 27.7194 21.6278 27.7194 21.6313C27.7194 21.6348 27.7194 21.6383 27.7194 21.6418C27.7194 21.6453 27.7194 21.6488 27.7194 21.6523C27.7194 21.6558 27.7194 21.6593 27.7194 21.6628C27.7194 21.6663 27.7194 21.6699 27.7194 21.6734C27.7194 21.6769 27.7194 21.6804 27.7194 21.6839C27.7194 21.6875 27.7194 21.691 27.7194 21.6945C27.7194 21.698 27.7194 21.7016 27.7194 21.7051C27.7194 21.7086 27.7194 21.7122 27.7194 21.7157C27.7194 21.7193 27.7194 21.7228 27.7194 21.7264C27.7194 21.7299 27.7194 21.7335 27.7194 21.737C27.7194 21.7406 27.7194 21.7441 27.7194 21.7477C27.7194 21.7512 27.7194 21.7548 27.7194 21.7584C27.7194 21.7619 27.7194 21.7655 27.7194 21.7691C27.7194 21.7727 27.7194 21.7762 27.7194 21.7798C27.7194 21.7834 27.7194 21.787 27.7194 21.7905C27.7194 21.7941 27.7194 21.7977 27.7194 21.8013C27.7194 21.8049 27.7194 21.8085 27.7194 21.8121C27.7194 21.8157 27.7194 21.8193 27.7194 21.8229C27.7194 21.8265 27.7194 21.8301 27.7194 21.8337C27.7194 21.8373 27.7194 21.8409 27.7194 21.8445C27.7194 21.8481 27.7194 21.8517 27.7194 21.8554C27.7194 21.859 27.7194 21.8626 27.7194 21.8662C27.7194 21.8699 27.7194 21.8735 27.7194 21.8771C27.7194 21.8807 27.7194 21.8844 27.7194 21.888C27.7194 21.8917 27.7194 21.8953 27.7194 21.8989C27.7194 21.9026 27.7194 21.9062 27.7194 21.9099C27.7194 21.9135 27.7194 21.9172 27.7194 21.9208C27.7194 21.9245 27.7194 21.9281 27.7194 21.9318C27.7194 21.9355 27.7194 21.9391 27.7194 21.9428C27.7194 21.9464 27.7194 21.9501 27.7194 21.9538C27.7194 21.9575 27.7194 21.9611 27.7194 21.9648C27.7194 21.9685 27.7194 21.9722 27.7194 21.9758C27.7194 21.9795 27.7194 21.9832 27.7194 21.9869C27.7194 21.9906 27.7194 21.9943 27.7194 21.998C27.7194 22.0017 27.7194 22.0054 27.7194 22.0091C27.7194 22.0128 27.7194 22.0165 27.7194 22.0202C27.7194 22.0239 27.7194 22.0276 27.7194 22.0313C27.7194 22.035 27.7194 22.0387 27.7194 22.0425C27.7194 22.0462 27.7194 22.0499 27.7194 22.0536C27.7194 22.0573 27.7194 22.0611 27.7194 22.0648C27.7194 22.0685 27.7194 22.0723 27.7194 22.076C27.7194 22.0797 27.7194 22.0835 27.7194 22.0872C27.7194 22.091 27.7194 22.0947 27.7194 22.0984C27.7194 22.1022 27.7194 22.1059 27.7194 22.1097C27.7194 22.1134 27.7194 22.1172 27.7194 22.121C27.7194 22.1247 27.7194 22.1285 27.7194 22.1322H30.2194C30.2194 22.1285 30.2194 22.1247 30.2194 22.121C30.2194 22.1172 30.2194 22.1134 30.2194 22.1097C30.2194 22.1059 30.2194 22.1022 30.2194 22.0984C30.2194 22.0947 30.2194 22.091 30.2194 22.0872C30.2194 22.0835 30.2194 22.0797 30.2194 22.076C30.2194 22.0723 30.2194 22.0685 30.2194 22.0648C30.2194 22.0611 30.2194 22.0573 30.2194 22.0536C30.2194 22.0499 30.2194 22.0462 30.2194 22.0425C30.2194 22.0387 30.2194 22.035 30.2194 22.0313C30.2194 22.0276 30.2194 22.0239 30.2194 22.0202C30.2194 22.0165 30.2194 22.0128 30.2194 22.0091C30.2194 22.0054 30.2194 22.0017 30.2194 21.998C30.2194 21.9943 30.2194 21.9906 30.2194 21.9869C30.2194 21.9832 30.2194 21.9795 30.2194 21.9758C30.2194 21.9722 30.2194 21.9685 30.2194 21.9648C30.2194 21.9611 30.2194 21.9575 30.2194 21.9538C30.2194 21.9501 30.2194 21.9464 30.2194 21.9428C30.2194 21.9391 30.2194 21.9355 30.2194 21.9318C30.2194 21.9281 30.2194 21.9245 30.2194 21.9208C30.2194 21.9172 30.2194 21.9135 30.2194 21.9099C30.2194 21.9062 30.2194 21.9026 30.2194 21.8989C30.2194 21.8953 30.2194 21.8917 30.2194 21.888C30.2194 21.8844 30.2194 21.8807 30.2194 21.8771C30.2194 21.8735 30.2194 21.8699 30.2194 21.8662C30.2194 21.8626 30.2194 21.859 30.2194 21.8554C30.2194 21.8517 30.2194 21.8481 30.2194 21.8445C30.2194 21.8409 30.2194 21.8373 30.2194 21.8337C30.2194 21.8301 30.2194 21.8265 30.2194 21.8229C30.2194 21.8193 30.2194 21.8157 30.2194 21.8121C30.2194 21.8085 30.2194 21.8049 30.2194 21.8013C30.2194 21.7977 30.2194 21.7941 30.2194 21.7905C30.2194 21.787 30.2194 21.7834 30.2194 21.7798C30.2194 21.7762 30.2194 21.7727 30.2194 21.7691C30.2194 21.7655 30.2194 21.7619 30.2194 21.7584C30.2194 21.7548 30.2194 21.7512 30.2194 21.7477C30.2194 21.7441 30.2194 21.7406 30.2194 21.737C30.2194 21.7335 30.2194 21.7299 30.2194 21.7264C30.2194 21.7228 30.2194 21.7193 30.2194 21.7157C30.2194 21.7122 30.2194 21.7086 30.2194 21.7051C30.2194 21.7016 30.2194 21.698 30.2194 21.6945C30.2194 21.691 30.2194 21.6875 30.2194 21.6839C30.2194 21.6804 30.2194 21.6769 30.2194 21.6734C30.2194 21.6699 30.2194 21.6663 30.2194 21.6628C30.2194 21.6593 30.2194 21.6558 30.2194 21.6523C30.2194 21.6488 30.2194 21.6453 30.2194 21.6418C30.2194 21.6383 30.2194 21.6348 30.2194 21.6313C30.2194 21.6278 30.2194 21.6243 30.2194 21.6208C30.2194 21.6173 30.2194 21.6139 30.2194 21.6104C30.2194 21.6069 30.2194 21.6034 30.2194 21.5999C30.2194 21.5965 30.2194 21.593 30.2194 21.5895C30.2194 21.586 30.2194 21.5826 30.2194 21.5791C30.2194 21.5756 30.2194 21.5722 30.2194 21.5687C30.2194 21.5653 30.2194 21.5618 30.2194 21.5584C30.2194 21.5549 30.2194 21.5515 30.2194 21.548C30.2194 21.5446 30.2194 21.5411 30.2194 21.5377C30.2194 21.5343 30.2194 21.5308 30.2194 21.5274C30.2194 21.5239 30.2194 21.5205 30.2194 21.5171C30.2194 21.5137 30.2194 21.5102 30.2194 21.5068C30.2194 21.5034 30.2194 21.5 30.2194 21.4966C30.2194 21.4931 30.2194 21.4897 30.2194 21.4863C30.2194 21.4829 30.2194 21.4795 30.2194 21.4761C30.2194 21.4727 30.2194 21.4693 30.2194 21.4659C30.2194 21.4625 30.2194 21.4591 30.2194 21.4557C30.2194 21.4523 30.2194 21.4489 30.2194 21.4456C30.2194 21.4422 30.2194 21.4388 30.2194 21.4354C30.2194 21.432 30.2194 21.4287 30.2194 21.4253C30.2194 21.4219 30.2194 21.4185 30.2194 21.4152C30.2194 21.4118 30.2194 21.4085 30.2194 21.4051C30.2194 21.4017 30.2194 21.3984 30.2194 21.395C30.2194 21.3917 30.2194 21.3883 30.2194 21.385C30.2194 21.3816 30.2194 21.3783 30.2194 21.3749C30.2194 21.3716 30.2194 21.3683 30.2194 21.3649C30.2194 21.3616 30.2194 21.3582 30.2194 21.3549C30.2194 21.3516 30.2194 21.3483 30.2194 21.3449C30.2194 21.3416 30.2194 21.3383 30.2194 21.335C30.2194 21.3317 30.2194 21.3283 30.2194 21.325C30.2194 21.3217 30.2194 21.3184 30.2194 21.3151C30.2194 21.3118 30.2194 21.3085 30.2194 21.3052C30.2194 21.3019 30.2194 21.2986 30.2194 21.2953C30.2194 21.292 30.2194 21.2887 30.2194 21.2855C30.2194 21.2822 30.2194 21.2789 30.2194 21.2756C30.2194 21.2723 30.2194 21.2691 30.2194 21.2658C30.2194 21.2625 30.2194 21.2592 30.2194 21.256C30.2194 21.2527 30.2194 21.2494 30.2194 21.2462C30.2194 21.2429 30.2194 21.2397 30.2194 21.2364C30.2194 21.2331 30.2194 21.2299 30.2194 21.2266C30.2194 21.2234 30.2194 21.2202 30.2194 21.2169C30.2194 21.2137 30.2194 21.2104 30.2194 21.2072C30.2194 21.204 30.2194 21.2007 30.2194 21.1975C30.2194 21.1943 30.2194 21.191 30.2194 21.1878C30.2194 21.1846 30.2194 21.1814 30.2194 21.1782C30.2194 21.1749 30.2194 21.1717 30.2194 21.1685C30.2194 21.1653 30.2194 21.1621 30.2194 21.1589C30.2194 21.1557 30.2194 21.1525 30.2194 21.1493C30.2194 21.1461 30.2194 21.1429 30.2194 21.1397C30.2194 21.1365 30.2194 21.1333 30.2194 21.1301C30.2194 21.127 30.2194 21.1238 30.2194 21.1206C30.2194 21.1174 30.2194 21.1142 30.2194 21.1111C30.2194 21.1079 30.2194 21.1047 30.2194 21.1016C30.2194 21.0984 30.2194 21.0952 30.2194 21.0921C30.2194 21.0889 30.2194 21.0857 30.2194 21.0826C30.2194 21.0794 30.2194 21.0763 30.2194 21.0731C30.2194 21.07 30.2194 21.0668 30.2194 21.0637C30.2194 21.0606 30.2194 21.0574 30.2194 21.0543C30.2194 21.0512 30.2194 21.048 30.2194 21.0449C30.2194 21.0418 30.2194 21.0386 30.2194 21.0355C30.2194 21.0324 30.2194 21.0293 30.2194 21.0262C30.2194 21.0231 30.2194 21.0199 30.2194 21.0168C30.2194 21.0137 30.2194 21.0106 30.2194 21.0075C30.2194 21.0044 30.2194 21.0013 30.2194 20.9982C30.2194 20.9951 30.2194 20.992 30.2194 20.9889C30.2194 20.9858 30.2194 20.9828 30.2194 20.9797C30.2194 20.9766 30.2194 20.9735 30.2194 20.9704C30.2194 20.9674 30.2194 20.9643 30.2194 20.9612C30.2194 20.9581 30.2194 20.9551 30.2194 20.952C30.2194 20.949 30.2194 20.9459 30.2194 20.9428C30.2194 20.9398 30.2194 20.9367 30.2194 20.9337C30.2194 20.9306 30.2194 20.9276 30.2194 20.9245C30.2194 20.9215 30.2194 20.9184 30.2194 20.9154C30.2194 20.9124 30.2194 20.9093 30.2194 20.9063C30.2194 20.9033 30.2194 20.9002 30.2194 20.8972C30.2194 20.8942 30.2194 20.8912 30.2194 20.8881C30.2194 20.8851 30.2194 20.8821 30.2194 20.8791C30.2194 20.8761 30.2194 20.8731 30.2194 20.8701C30.2194 20.8671 30.2194 20.8641 30.2194 20.8611C30.2194 20.8581 30.2194 20.8551 30.2194 20.8521C30.2194 20.8491 30.2194 20.8461 30.2194 20.8431C30.2194 20.8401 30.2194 20.8371 30.2194 20.8342C30.2194 20.8312 30.2194 20.8282 30.2194 20.8252C30.2194 20.8223 30.2194 20.8193 30.2194 20.8163C30.2194 20.8134 30.2194 20.8104 30.2194 20.8074C30.2194 20.8045 30.2194 20.8015 30.2194 20.7986C30.2194 20.7956 30.2194 20.7927 30.2194 20.7897C30.2194 20.7868 30.2194 20.7838 30.2194 20.7809C30.2194 20.7779 30.2194 20.775 30.2194 20.7721C30.2194 20.7691 30.2194 20.7662 30.2194 20.7633C30.2194 20.7604 30.2194 20.7574 30.2194 20.7545C30.2194 20.7516 30.2194 20.7487 30.2194 20.7458C30.2194 20.7428 30.2194 20.7399 30.2194 20.737C30.2194 20.7341 30.2194 20.7312 30.2194 20.7283C30.2194 20.7254 30.2194 20.7225 30.2194 20.7196C30.2194 20.7167 30.2194 20.7138 30.2194 20.7109C30.2194 20.7081 30.2194 20.7052 30.2194 20.7023C30.2194 20.6994 30.2194 20.6965 30.2194 20.6937C30.2194 20.6908 30.2194 20.6879 30.2194 20.685C30.2194 20.6822 30.2194 20.6793 30.2194 20.6765C30.2194 20.6736 30.2194 20.6707 30.2194 20.6679C30.2194 20.665 30.2194 20.6622 30.2194 20.6593C30.2194 20.6565 30.2194 20.6536 30.2194 20.6508C30.2194 20.648 30.2194 20.6451 30.2194 20.6423C30.2194 20.6394 30.2194 20.6366 30.2194 20.6338C30.2194 20.631 30.2194 20.6281 30.2194 20.6253C30.2194 20.6225 30.2194 20.6197 30.2194 20.6169C30.2194 20.614 30.2194 20.6112 30.2194 20.6084C30.2194 20.6056 30.2194 20.6028 30.2194 20.6C30.2194 20.5972 30.2194 20.5944 30.2194 20.5916C30.2194 20.5888 30.2194 20.586 30.2194 20.5833C30.2194 20.5805 30.2194 20.5777 30.2194 20.5749C30.2194 20.5721 30.2194 20.5693 30.2194 20.5666C30.2194 20.5638 30.2194 20.561 30.2194 20.5583C30.2194 20.5555 30.2194 20.5527 30.2194 20.55C30.2194 20.5472 30.2194 20.5444 30.2194 20.5417C30.2194 20.5389 30.2194 20.5362 30.2194 20.5334C30.2194 20.5307 30.2194 20.528 30.2194 20.5252C30.2194 20.5225 30.2194 20.5197 30.2194 20.517C30.2194 20.5143 30.2194 20.5115 30.2194 20.5088C30.2194 20.5061 30.2194 20.5034 30.2194 20.5006C30.2194 20.4979 30.2194 20.4952 30.2194 20.4925C30.2194 20.4898 30.2194 20.4871 30.2194 20.4844C30.2194 20.4817 30.2194 20.479 30.2194 20.4763C30.2194 20.4736 30.2194 20.4709 30.2194 20.4682C30.2194 20.4655 30.2194 20.4628 30.2194 20.4601C30.2194 20.4574 30.2194 20.4547 30.2194 20.452C30.2194 20.4494 30.2194 20.4467 30.2194 20.444C30.2194 20.4413 30.2194 20.4387 30.2194 20.436C30.2194 20.4333 30.2194 20.4307 30.2194 20.428C30.2194 20.4254 30.2194 20.4227 30.2194 20.4201C30.2194 20.4174 30.2194 20.4148 30.2194 20.4121C30.2194 20.4095 30.2194 20.4068 30.2194 20.4042C30.2194 20.4016 30.2194 20.3989 30.2194 20.3963C30.2194 20.3937 30.2194 20.391 30.2194 20.3884C30.2194 20.3858 30.2194 20.3832 30.2194 20.3805C30.2194 20.3779 30.2194 20.3753 30.2194 20.3727C30.2194 20.3701 30.2194 20.3675 30.2194 20.3649C30.2194 20.3623 30.2194 20.3597 30.2194 20.3571C30.2194 20.3545 30.2194 20.3519 30.2194 20.3493C30.2194 20.3467 30.2194 20.3441 30.2194 20.3415C30.2194 20.339 30.2194 20.3364 30.2194 20.3338C30.2194 20.3312 30.2194 20.3287 30.2194 20.3261C30.2194 20.3235 30.2194 20.3209 30.2194 20.3184C30.2194 20.3158 30.2194 20.3133 30.2194 20.3107C30.2194 20.3082 30.2194 20.3056 30.2194 20.3031C30.2194 20.3005 30.2194 20.298 30.2194 20.2954C30.2194 20.2929 30.2194 20.2903 30.2194 20.2878C30.2194 20.2853 30.2194 20.2827 30.2194 20.2802C30.2194 20.2777 30.2194 20.2752 30.2194 20.2726C30.2194 20.2701 30.2194 20.2676 30.2194 20.2651C30.2194 20.2626 30.2194 20.2601 30.2194 20.2576C30.2194 20.2551 30.2194 20.2525 30.2194 20.25C30.2194 20.2475 30.2194 20.2451 30.2194 20.2426C30.2194 20.2401 30.2194 20.2376 30.2194 20.2351C30.2194 20.2326 30.2194 20.2301 30.2194 20.2276C30.2194 20.2252 30.2194 20.2227 30.2194 20.2202C30.2194 20.2177 30.2194 20.2153 30.2194 20.2128C30.2194 20.2104 30.2194 20.2079 30.2194 20.2054C30.2194 20.203 30.2194 20.2005 30.2194 20.1981C30.2194 20.1956 30.2194 20.1932 30.2194 20.1907C30.2194 20.1883 30.2194 20.1858 30.2194 20.1834C30.2194 20.181 30.2194 20.1785 30.2194 20.1761C30.2194 20.1737 30.2194 20.1713 30.2194 20.1688C30.2194 20.1664 30.2194 20.164 30.2194 20.1616C30.2194 20.1592 30.2194 20.1567 30.2194 20.1543C30.2194 20.1519 30.2194 20.1495 30.2194 20.1471C30.2194 20.1447 30.2194 20.1423 30.2194 20.1399C30.2194 20.1375 30.2194 20.1351 30.2194 20.1328C30.2194 20.1304 30.2194 20.128 30.2194 20.1256C30.2194 20.1232 30.2194 20.1209 30.2194 20.1185C30.2194 20.1161 30.2194 20.1137 30.2194 20.1114C30.2194 20.109 30.2194 20.1066 30.2194 20.1043C30.2194 20.1019 30.2194 20.0996 30.2194 20.0972C30.2194 20.0949 30.2194 20.0925 30.2194 20.0902C30.2194 20.0878 30.2194 20.0855 30.2194 20.0832C30.2194 20.0808 30.2194 20.0785 30.2194 20.0762C30.2194 20.0738 30.2194 20.0715 30.2194 20.0692C30.2194 20.0669 30.2194 20.0645 30.2194 20.0622C30.2194 20.0599 30.2194 20.0576 30.2194 20.0553C30.2194 20.053 30.2194 20.0507 30.2194 20.0484C30.2194 20.0461 30.2194 20.0438 30.2194 20.0415C30.2194 20.0392 30.2194 20.0369 30.2194 20.0346C30.2194 20.0323 30.2194 20.03 30.2194 20.0278C30.2194 20.0255 30.2194 20.0232 30.2194 20.0209C30.2194 20.0186 30.2194 20.0164 30.2194 20.0141C30.2194 20.0118 30.2194 20.0096 30.2194 20.0073C30.2194 20.0051 30.2194 20.0028 30.2194 20.0006C30.2194 19.9983 30.2194 19.9961 30.2194 19.9938C30.2194 19.9916 30.2194 19.9893 30.2194 19.9871C30.2194 19.9849 30.2194 19.9826 30.2194 19.9804C30.2194 19.9782 30.2194 19.9759 30.2194 19.9737C30.2194 19.9715 30.2194 19.9693 30.2194 19.9671C30.2194 19.9649 30.2194 19.9626 30.2194 19.9604C30.2194 19.9582 30.2194 19.956 30.2194 19.9538C30.2194 19.9516 30.2194 19.9494 30.2194 19.9472C30.2194 19.945 30.2194 19.9428 30.2194 19.9407C30.2194 19.9385 30.2194 19.9363 30.2194 19.9341C30.2194 19.9319 30.2194 19.9298 30.2194 19.9276C30.2194 19.9254 30.2194 19.9232 30.2194 19.9211C30.2194 19.9189 30.2194 19.9168 30.2194 19.9146C30.2194 19.9124 30.2194 19.9103 30.2194 19.9081C30.2194 19.906 30.2194 19.9038 30.2194 19.9017C30.2194 19.8996 30.2194 19.8974 30.2194 19.8953C30.2194 19.8932 30.2194 19.891 30.2194 19.8889C30.2194 19.8868 30.2194 19.8846 30.2194 19.8825C30.2194 19.8804 30.2194 19.8783 30.2194 19.8762C30.2194 19.8741 30.2194 19.872 30.2194 19.8698C30.2194 19.8677 30.2194 19.8656 30.2194 19.8635C30.2194 19.8614 30.2194 19.8593 30.2194 19.8573C30.2194 19.8552 30.2194 19.8531 30.2194 19.851C30.2194 19.8489 30.2194 19.8468 30.2194 19.8448C30.2194 19.8427 30.2194 19.8406 30.2194 19.8385C30.2194 19.8365 30.2194 19.8344 30.2194 19.8323C30.2194 19.8303 30.2194 19.8282 30.2194 19.8262C30.2194 19.8241 30.2194 19.8221 30.2194 19.82C30.2194 19.818 30.2194 19.8159 30.2194 19.8139C30.2194 19.8118 30.2194 19.8098 30.2194 19.8078C30.2194 19.8057 30.2194 19.8037 30.2194 19.8017C30.2194 19.7997 30.2194 19.7977 30.2194 19.7956C30.2194 19.7936 30.2194 19.7916 30.2194 19.7896C30.2194 19.7876 30.2194 19.7856 30.2194 19.7836C30.2194 19.7816 30.2194 19.7796 30.2194 19.7776C30.2194 19.7756 30.2194 19.7736 30.2194 19.7716C30.2194 19.7696 30.2194 19.7676 30.2194 19.7657C30.2194 19.7637 30.2194 19.7617 30.2194 19.7597C30.2194 19.7578 30.2194 19.7558 30.2194 19.7538C30.2194 19.7519 30.2194 19.7499 30.2194 19.7479C30.2194 19.746 30.2194 19.744 30.2194 19.7421C30.2194 19.7401 30.2194 19.7382 30.2194 19.7362C30.2194 19.7343 30.2194 19.7324 30.2194 19.7304C30.2194 19.7285 30.2194 19.7266 30.2194 19.7246C30.2194 19.7227 30.2194 19.7208 30.2194 19.7189C30.2194 19.7169 30.2194 19.715 30.2194 19.7131C30.2194 19.7112 30.2194 19.7093 30.2194 19.7074C30.2194 19.7055 30.2194 19.7036 30.2194 19.7017C30.2194 19.6998 30.2194 19.6979 30.2194 19.696C30.2194 19.6941 30.2194 19.6922 30.2194 19.6903C30.2194 19.6884 30.2194 19.6866 30.2194 19.6847C30.2194 19.6828 30.2194 19.6809 30.2194 19.6791C30.2194 19.6772 30.2194 19.6753 30.2194 19.6735C30.2194 19.6716 30.2194 19.6698 30.2194 19.6679C30.2194 19.6661 30.2194 19.6642 30.2194 19.6624C30.2194 19.6605 30.2194 19.6587 30.2194 19.6568C30.2194 19.655 30.2194 19.6532 30.2194 19.6513C30.2194 19.6495 30.2194 19.6477 30.2194 19.6459C30.2194 19.644 30.2194 19.6422 30.2194 19.6404C30.2194 19.6386 30.2194 19.6368 30.2194 19.635C30.2194 19.6332 30.2194 19.6314 30.2194 19.6296C30.2194 19.6278 30.2194 19.626 30.2194 19.6242C30.2194 19.6224 30.2194 19.6206 30.2194 19.6188C30.2194 19.617 30.2194 19.6153 30.2194 19.6135C30.2194 19.6117 30.2194 19.6099 30.2194 19.6082C30.2194 19.6064 30.2194 19.6046 30.2194 19.6029C30.2194 19.6011 30.2194 19.5993 30.2194 19.5976C30.2194 19.5958 30.2194 19.5941 30.2194 19.5923C30.2194 19.5906 30.2194 19.5889 30.2194 19.5871C30.2194 19.5854 30.2194 19.5836 30.2194 19.5819C30.2194 19.5802 30.2194 19.5785 30.2194 19.5767C30.2194 19.575 30.2194 19.5733 30.2194 19.5716C30.2194 19.5699 30.2194 19.5681 30.2194 19.5664C30.2194 19.5647 30.2194 19.563 30.2194 19.5613C30.2194 19.5596 30.2194 19.5579 30.2194 19.5562C30.2194 19.5545 30.2194 19.5529 30.2194 19.5512C30.2194 19.5495 30.2194 19.5478 30.2194 19.5461C30.2194 19.5445 30.2194 19.5428 30.2194 19.5411C30.2194 19.5394 30.2194 19.5378 30.2194 19.5361C30.2194 19.5345 30.2194 19.5328 30.2194 19.5311C30.2194 19.5295 30.2194 19.5278 30.2194 19.5262C30.2194 19.5245 30.2194 19.5229 30.2194 19.5213C30.2194 19.5196 30.2194 19.518 30.2194 19.5164C30.2194 19.5147 30.2194 19.5131 30.2194 19.5115C30.2194 19.5099 30.2194 19.5082 30.2194 19.5066C30.2194 19.505 30.2194 19.5034 30.2194 19.5018C30.2194 19.5002 30.2194 19.4986 30.2194 19.497C30.2194 19.4954 30.2194 19.4938 30.2194 19.4922C30.2194 19.4906 30.2194 19.489 30.2194 19.4874C30.2194 19.4858 30.2194 19.4843 30.2194 19.4827C30.2194 19.4811 30.2194 19.4795 30.2194 19.478C30.2194 19.4764 30.2194 19.4748 30.2194 19.4733C30.2194 19.4717 30.2194 19.4702 30.2194 19.4686C30.2194 19.4671 30.2194 19.4655 30.2194 19.464C30.2194 19.4624 30.2194 19.4609 30.2194 19.4593C30.2194 19.4578 30.2194 19.4563 30.2194 19.4547C30.2194 19.4532 30.2194 19.4517 30.2194 19.4502C30.2194 19.4486 30.2194 19.4471 30.2194 19.4456C30.2194 19.4441 30.2194 19.4426 30.2194 19.4411C30.2194 19.4396 30.2194 19.4381 30.2194 19.4366C30.2194 19.4351 30.2194 19.4336 30.2194 19.4321C30.2194 19.4306 30.2194 19.4291 30.2194 19.4276C30.2194 19.4261 30.2194 19.4247 30.2194 19.4232C30.2194 19.4217 30.2194 19.4202 30.2194 19.4188C30.2194 19.4173 30.2194 19.4158 30.2194 19.4144C30.2194 19.4129 30.2194 19.4115 30.2194 19.41C30.2194 19.4086 30.2194 19.4071 30.2194 19.4057C30.2194 19.4042 30.2194 19.4028 30.2194 19.4014C30.2194 19.3999 30.2194 19.3985 30.2194 19.3971C30.2194 19.3956 30.2194 19.3942 30.2194 19.3928C30.2194 19.3914 30.2194 19.39 30.2194 19.3886C30.2194 19.3871 30.2194 19.3857 30.2194 19.3843C30.2194 19.3829 30.2194 19.3815 30.2194 19.3801C30.2194 19.3787 30.2194 19.3773 30.2194 19.376C30.2194 19.3746 30.2194 19.3732 30.2194 19.3718C30.2194 19.3704 30.2194 19.3691 30.2194 19.3677C30.2194 19.3663 30.2194 19.3649 30.2194 19.3636C30.2194 19.3622 30.2194 19.3609 30.2194 19.3595C30.2194 19.3581 30.2194 19.3568 30.2194 19.3554C30.2194 19.3541 30.2194 19.3528 30.2194 19.3514C30.2194 19.3501 30.2194 19.3487 30.2194 19.3474C30.2194 19.3461 30.2194 19.3447 30.2194 19.3434C30.2194 19.3421 30.2194 19.3408 30.2194 19.3395C30.2194 19.3381 30.2194 19.3368 30.2194 19.3355C30.2194 19.3342 30.2194 19.3329 30.2194 19.3316C30.2194 19.3303 30.2194 19.329 30.2194 19.3277C30.2194 19.3264 30.2194 19.3251 30.2194 19.3239C30.2194 19.3226 30.2194 19.3213 30.2194 19.32C30.2194 19.3187 30.2194 19.3175 30.2194 19.3162C30.2194 19.3149 30.2194 19.3137 30.2194 19.3124C30.2194 19.3112 30.2194 19.3099 30.2194 19.3086C30.2194 19.3074 30.2194 19.3061 30.2194 19.3049C30.2194 19.3037 30.2194 19.3024 30.2194 19.3012C30.2194 19.2999 30.2194 19.2987 30.2194 19.2975C30.2194 19.2963 30.2194 19.295 30.2194 19.2938C30.2194 19.2926 30.2194 19.2914 30.2194 19.2902C30.2194 19.289 30.2194 19.2878 30.2194 19.2865C30.2194 19.2853 30.2194 19.2841 30.2194 19.283C30.2194 19.2818 30.2194 19.2806 30.2194 19.2794C30.2194 19.2782 30.2194 19.277 30.2194 19.2758C30.2194 19.2746 30.2194 19.2735 30.2194 19.2723C30.2194 19.2711 30.2194 19.27 30.2194 19.2688C30.2194 19.2676 30.2194 19.2665 30.2194 19.2653C30.2194 19.2642 30.2194 19.263 30.2194 19.2619C30.2194 19.2607 30.2194 19.2596 30.2194 19.2584C30.2194 19.2573 30.2194 19.2562 30.2194 19.255C30.2194 19.2539 30.2194 19.2528 30.2194 19.2517C30.2194 19.2505 30.2194 19.2494 30.2194 19.2483C30.2194 19.2472 30.2194 19.2461 30.2194 19.245C30.2194 19.2439 30.2194 19.2428 30.2194 19.2417C30.2194 19.2406 30.2194 19.2395 30.2194 19.2384C30.2194 19.2373 30.2194 19.2362 30.2194 19.2351C30.2194 19.2341 30.2194 19.233 30.2194 19.2319C30.2194 19.2308 30.2194 19.2298 30.2194 19.2287C30.2194 19.2276 30.2194 19.2266 30.2194 19.2255C30.2194 19.2245 30.2194 19.2234 30.2194 19.2224C30.2194 19.2213 30.2194 19.2203 30.2194 19.2192C30.2194 19.2182 30.2194 19.2171 30.2194 19.2161C30.2194 19.2151 30.2194 19.2141 30.2194 19.213C30.2194 19.212 30.2194 19.211 30.2194 19.21C30.2194 19.209 30.2194 19.2079 30.2194 19.2069C30.2194 19.2059 30.2194 19.2049 30.2194 19.2039C30.2194 19.2029 30.2194 19.2019 30.2194 19.2009C30.2194 19.1999 30.2194 19.199 30.2194 19.198C30.2194 19.197 30.2194 19.196 30.2194 19.195C30.2194 19.1941 30.2194 19.1931 30.2194 19.1921C30.2194 19.1912 30.2194 19.1902 30.2194 19.1892C30.2194 19.1883 30.2194 19.1873 30.2194 19.1864C30.2194 19.1854 30.2194 19.1845 30.2194 19.1835C30.2194 19.1826 30.2194 19.1817 30.2194 19.1807C30.2194 19.1798 30.2194 19.1789 30.2194 19.1779C30.2194 19.177 30.2194 19.1761 30.2194 19.1752C30.2194 19.1743 30.2194 19.1734 30.2194 19.1724C30.2194 19.1715 30.2194 19.1706 30.2194 19.1697C30.2194 19.1688 30.2194 19.1679 30.2194 19.167C30.2194 19.1662 30.2194 19.1653 30.2194 19.1644C30.2194 19.1635 30.2194 19.1626 30.2194 19.1617C30.2194 19.1609 30.2194 19.16 30.2194 19.1591C30.2194 19.1583 30.2194 19.1574 30.2194 19.1565C30.2194 19.1557 30.2194 19.1548 30.2194 19.154C30.2194 19.1531 30.2194 19.1523 30.2194 19.1515C30.2194 19.1506 30.2194 19.1498 30.2194 19.1489C30.2194 19.1481 30.2194 19.1473 30.2194 19.1465C30.2194 19.1456 30.2194 19.1448 30.2194 19.144C30.2194 19.1432 30.2194 19.1424 30.2194 19.1416C30.2194 19.1407 30.2194 19.1399 30.2194 19.1391C30.2194 19.1383 30.2194 19.1375 30.2194 19.1368C30.2194 19.136 30.2194 19.1352 30.2194 19.1344C30.2194 19.1336 30.2194 19.1328 30.2194 19.1321C30.2194 19.1313 30.2194 19.1305 30.2194 19.1297C30.2194 19.129 30.2194 19.1282 30.2194 19.1275C30.2194 19.1267 30.2194 19.126 30.2194 19.1252C30.2194 19.1245 30.2194 19.1237 30.2194 19.123C30.2194 19.1222 30.2194 19.1215 30.2194 19.1208C30.2194 19.12 30.2194 19.1193 30.2194 19.1186C30.2194 19.1179 30.2194 19.1171 30.2194 19.1164C30.2194 19.1157 30.2194 19.115 30.2194 19.1143C30.2194 19.1136 30.2194 19.1129 30.2194 19.1122C30.2194 19.1115 30.2194 19.1108 30.2194 19.1101C30.2194 19.1094 30.2194 19.1087 30.2194 19.108C30.2194 19.1074 30.2194 19.1067 30.2194 19.106C30.2194 19.1053 30.2194 19.1047 30.2194 19.104C30.2194 19.1033 30.2194 19.1027 30.2194 19.102C30.2194 19.1014 30.2194 19.1007 30.2194 19.1001C30.2194 19.0994 30.2194 19.0988 30.2194 19.0981C30.2194 19.0975 30.2194 19.0969 30.2194 19.0962C30.2194 19.0956 30.2194 19.095 30.2194 19.0944C30.2194 19.0937 30.2194 19.0931 30.2194 19.0925C30.2194 19.0919 30.2194 19.0913 30.2194 19.0907C30.2194 19.0901 30.2194 19.0895 30.2194 19.0889C30.2194 19.0883 30.2194 19.0877 30.2194 19.0871C30.2194 19.0865 30.2194 19.0859 30.2194 19.0853C30.2194 19.0848 30.2194 19.0842 30.2194 19.0836C30.2194 19.0831 30.2194 19.0825 30.2194 19.0819C30.2194 19.0814 30.2194 19.0808 30.2194 19.0802C30.2194 19.0797 30.2194 19.0791 30.2194 19.0786C30.2194 19.0781 30.2194 19.0775 30.2194 19.077C30.2194 19.0764 30.2194 19.0759 30.2194 19.0754C30.2194 19.0749 30.2194 19.0743 30.2194 19.0738C30.2194 19.0733 30.2194 19.0728 30.2194 19.0723C30.2194 19.0718 30.2194 19.0713 30.2194 19.0708C30.2194 19.0703 30.2194 19.0698 30.2194 19.0693C30.2194 19.0688 30.2194 19.0683 30.2194 19.0678C30.2194 19.0673 30.2194 19.0668 30.2194 19.0664C30.2194 19.0659 30.2194 19.0654 30.2194 19.0649C30.2194 19.0645 30.2194 19.064 30.2194 19.0636C30.2194 19.0631 30.2194 19.0626 30.2194 19.0622C30.2194 19.0617 30.2194 19.0613 30.2194 19.0609C30.2194 19.0604 30.2194 19.06 30.2194 19.0595C30.2194 19.0591 30.2194 19.0587 30.2194 19.0583C30.2194 19.0578 30.2194 19.0574 30.2194 19.057C30.2194 19.0566 30.2194 19.0562 30.2194 19.0558C30.2194 19.0554 30.2194 19.055 30.2194 19.0546C30.2194 19.0542 30.2194 19.0538 30.2194 19.0534C30.2194 19.053 30.2194 19.0526 30.2194 19.0522C30.2194 19.0518 30.2194 19.0515 30.2194 19.0511C30.2194 19.0507 30.2194 19.0504 30.2194 19.05C30.2194 19.0496 30.2194 19.0493 30.2194 19.0489C30.2194 19.0486 30.2194 19.0482 30.2194 19.0479C30.2194 19.0475 30.2194 19.0472 30.2194 19.0468C30.2194 19.0465 30.2194 19.0462 30.2194 19.0458C30.2194 19.0455 30.2194 19.0452 30.2194 19.0449C30.2194 19.0446 30.2194 19.0442 30.2194 19.0439C30.2194 19.0436 30.2194 19.0433 30.2194 19.043C30.2194 19.0427 30.2194 19.0424 30.2194 19.0421C30.2194 19.0418 30.2194 19.0415 30.2194 19.0413C30.2194 19.041 30.2194 19.0407 30.2194 19.0404C30.2194 19.0401 30.2194 19.0399 30.2194 19.0396C30.2194 19.0393 30.2194 19.0391 30.2194 19.0388C30.2194 19.0386 30.2194 19.0383 30.2194 19.0381C30.2194 19.0378 30.2194 19.0376 30.2194 19.0373C30.2194 19.0371 30.2194 19.0368 30.2194 19.0366C30.2194 19.0364 30.2194 19.0362 30.2194 19.0359C30.2194 19.0357 30.2194 19.0355 30.2194 19.0353C30.2194 19.0351 30.2194 19.0349 30.2194 19.0346C30.2194 19.0344 30.2194 19.0342 30.2194 19.034C30.2194 19.0339 30.2194 19.0337 30.2194 19.0335C30.2194 19.0333 30.2194 19.0331 30.2194 19.0329C30.2194 19.0327 30.2194 19.0326 30.2194 19.0324C30.2194 19.0322 30.2194 19.0321 30.2194 19.0319C30.2194 19.0317 30.2194 19.0316 30.2194 19.0314C30.2194 19.0313 30.2194 19.0311 30.2194 19.031C30.2194 19.0309 30.2194 19.0307 30.2194 19.0306C30.2194 19.0304 30.2194 19.0303 30.2194 19.0302C30.2194 19.0301 30.2194 19.0299 30.2194 19.0298C30.2194 19.0297 30.2194 19.0296 30.2194 19.0295C30.2194 19.0294 30.2194 19.0293 30.2194 19.0292C30.2194 19.0291 30.2194 19.029 30.2194 19.0289C30.2194 19.0288 30.2194 19.0287 30.2194 19.0286C30.2194 19.0286 30.2194 19.0285 30.2194 19.0284C30.2194 19.0283 30.2194 19.0283 30.2194 19.0282C30.2194 19.0282 30.2194 19.0281 30.2194 19.028C30.2194 19.028 30.2194 19.0279 30.2194 19.0279C30.2194 19.0278 30.2194 19.0278 30.2194 19.0278C30.2194 19.0277 30.2194 19.0277 30.2194 19.0277C30.2194 19.0277 30.2194 19.0276 30.2194 19.0276C30.2194 19.0276 30.2194 19.0276 30.2194 19.0276C30.2194 19.0276 30.2194 19.0276 28.9694 19.0276ZM27.7194 22.1322C27.7194 23.5592 27.4285 25.5545 26.3479 27.1563C25.3231 28.6755 23.485 30 20 30V32.5C24.2469 32.5 26.8935 30.818 28.4205 28.5544C29.8916 26.3735 30.2194 23.81 30.2194 22.1322H27.7194ZM20 30C16.5503 30 14.7033 28.5977 13.6614 27.0092C12.5656 25.3386 12.2813 23.3277 12.2813 22.1322H9.7813C9.7813 23.6132 10.1154 26.1612 11.5709 28.3804C13.0804 30.6816 15.7177 32.5 20 32.5V30ZM12.2813 22.1322C12.2813 21.08 12.3066 20.325 12.3312 19.8391C12.3436 19.5961 12.3557 19.4205 12.3645 19.3086C12.3688 19.2527 12.3724 19.2127 12.3746 19.1883C12.3758 19.176 12.3766 19.1677 12.377 19.1631C12.3773 19.1609 12.3774 19.1596 12.3774 19.1592C12.3775 19.159 12.3774 19.1591 12.3774 19.1594C12.3774 19.1595 12.3774 19.1597 12.3774 19.16C12.3773 19.1601 12.3773 19.1603 12.3773 19.1605C12.3773 19.1605 12.3773 19.1607 12.3773 19.1607C12.3773 19.1608 12.3772 19.161 11.1344 19.0276C9.89153 18.8941 9.89152 18.8943 9.8915 18.8944C9.89149 18.8945 9.89148 18.8946 9.89147 18.8947C9.89144 18.895 9.89142 18.8952 9.89139 18.8955C9.89134 18.896 9.89128 18.8965 9.89121 18.8971C9.89108 18.8984 9.89093 18.8998 9.89075 18.9015C9.8904 18.9049 9.88996 18.9093 9.88943 18.9146C9.88837 18.9252 9.88697 18.9395 9.88528 18.9578C9.88191 18.9942 9.87738 19.046 9.87209 19.1136C9.86151 19.2488 9.8479 19.4473 9.83445 19.7124C9.80755 20.2427 9.7813 21.04 9.7813 22.1322H12.2813Z" fill="#FF611D"/>
</svg>
