<svg width="24" height="24" viewBox="0 0 24 24" fill="none" xmlns="http://www.w3.org/2000/svg">
<path d="M21 24H3C1.344 24 0 22.656 0 21V3C0 1.344 1.344 0 3 0H21C22.656 0 24 1.344 24 3V21C24 22.656 22.656 24 21 24Z" fill="#1DA1F2"/>
<path d="M9.21586 18.0961C14.8739 18.0961 17.9699 13.4041 17.9699 9.34205C17.9699 9.21005 17.9699 9.07805 17.9639 8.94605C18.5639 8.51405 19.0859 7.96805 19.4999 7.35005C18.9479 7.59605 18.3539 7.75805 17.7299 7.83605C18.3659 7.45805 18.8519 6.85205 19.0859 6.13205C18.4919 6.48605 17.8319 6.73805 17.1299 6.87605C16.5659 6.27605 15.7679 5.90405 14.8859 5.90405C13.1879 5.90405 11.8079 7.28405 11.8079 8.98205C11.8079 9.22205 11.8379 9.45605 11.8859 9.68405C9.32986 9.55805 7.06186 8.32805 5.54386 6.46805C5.27986 6.92405 5.12986 7.45205 5.12986 8.01605C5.12986 9.08405 5.67586 10.0261 6.49786 10.5781C5.99386 10.5601 5.51986 10.4221 5.10586 10.1941C5.10586 10.2061 5.10586 10.2181 5.10586 10.2361C5.10586 11.7241 6.16786 12.9721 7.57186 13.2541C7.31386 13.3261 7.04386 13.3621 6.76186 13.3621C6.56386 13.3621 6.37186 13.3441 6.18586 13.3081C6.57586 14.5321 7.71586 15.4201 9.05986 15.4441C8.00386 16.2721 6.67786 16.7641 5.23786 16.7641C4.99186 16.7641 4.74586 16.7521 4.50586 16.7221C5.86186 17.5861 7.48186 18.0961 9.21586 18.0961Z" fill="white"/>
</svg>
